<?xml version="1.0" encoding="UTF-8"?>
<svg version="1.1" xmlns="http://www.w3.org/2000/svg" width="640" height="274">
<path d="M0 0 C-0.55035267 8.6221919 -4.95507619 15.95507619 -11 22 C-14.51417104 24.15406948 -18.09592306 25.69864102 -22 27 C-21.2575 27.45375 -20.515 27.9075 -19.75 28.375 C-15.90719544 32.04313163 -14.63885697 36.0230104 -13 41 C-12.65775391 42.01126953 -12.65775391 42.01126953 -12.30859375 43.04296875 C-10.65177769 48.66224 -10.74828995 54.18707105 -11 60 C-11.04125 61.00417969 -11.0825 62.00835937 -11.125 63.04296875 C-11.59972678 70.52980563 -11.59972678 70.52980563 -13.54296875 72.8125 C-14.26419922 73.4003125 -14.26419922 73.4003125 -15 74 C-19.53308306 69.68871917 -21.73478175 66.38206401 -22.0546875 60.05859375 C-21.98961695 57.60915229 -21.55048829 55.38544924 -21 53 C-20.61141821 46.97698222 -21.30556329 43.38887342 -24 38 C-24.18175781 38.69867188 -24.36351562 39.39734375 -24.55078125 40.1171875 C-24.80214844 41.02726562 -25.05351562 41.93734375 -25.3125 42.875 C-25.55613281 43.77992187 -25.79976563 44.68484375 -26.05078125 45.6171875 C-27 48 -27 48 -30 50 C-33.71908896 50.53209857 -37.28128835 50.54266914 -41 50 C-43.47530538 47.73686365 -43.84381646 46.33563852 -44.2265625 43.0625 C-44.39838536 38.93875143 -43.87156932 35.74313864 -42 32 C-42.515625 31.608125 -43.03125 31.21625 -43.5625 30.8125 C-45 29 -45 29 -44.8125 26.375 C-44 24 -44 24 -42 23 C-39.3276379 22.86584528 -36.67749512 22.95681459 -34 23 C-33.94714844 22.22527344 -33.89429688 21.45054688 -33.83984375 20.65234375 C-33 18 -33 18 -30.62890625 16.62890625 C-29.61699219 16.27699219 -28.60507812 15.92507812 -27.5625 15.5625 C-18.5733403 12.14363713 -11.21511805 7.42747239 -3.8125 1.3203125 C-2 0 -2 0 0 0 Z " fill="#B1C75F" transform="translate(395,59)"/>
<path d="M0 0 C3.45563866 2.02950207 5.77972642 4.66958962 8 8 C11.08365871 8.2502157 11.08365871 8.2502157 14 8 C15.25 9.5625 15.25 9.5625 16 12 C14.93237266 14.57001015 13.53455057 16.6530403 12 19 C12.99 19.66 13.98 20.32 15 21 C15.328125 23.27734375 15.328125 23.27734375 15.25 25.9375 C15.23453125 26.81277344 15.2190625 27.68804687 15.203125 28.58984375 C15 31 15 31 14 34 C13.90524156 35.95648317 13.87011529 37.91622955 13.875 39.875 C13.87242187 40.90367187 13.86984375 41.93234375 13.8671875 42.9921875 C13.99039193 45.78240554 14.42613686 48.27527972 15 51 C15.03824623 53.33301986 15.04574284 55.66711508 15 58 C12 58 12 58 10.5 56.6796875 C5.14229746 50.23370163 1.84934606 44.4417816 1.875 35.9375 C1.87113281 34.65166016 1.87113281 34.65166016 1.8671875 33.33984375 C2 31 2 31 3 28 C2.071875 28.2475 2.071875 28.2475 1.125 28.5 C-13.01409381 30.76225501 -23.19445457 25.33765342 -35 18 C-35.68964844 17.60425781 -36.37929688 17.20851562 -37.08984375 16.80078125 C-38.75 15.8125 -38.75 15.8125 -41 14 C-41 12.68 -41 11.36 -41 10 C-37.77418992 8.38709496 -34.49791866 8.5484505 -31 9 C-26.14036047 11.21667768 -22.48888063 14.12124334 -18.578125 17.73046875 C-15.51283696 20.19635641 -12.5730275 20.11133802 -8.8125 20.0625 C-7.91144531 20.05347656 -7.01039063 20.04445312 -6.08203125 20.03515625 C-5.05142578 20.01775391 -5.05142578 20.01775391 -4 20 C-4.56589844 19.66226563 -5.13179688 19.32453125 -5.71484375 18.9765625 C-6.44832031 18.53054687 -7.18179688 18.08453125 -7.9375 17.625 C-8.66839844 17.18414062 -9.39929688 16.74328125 -10.15234375 16.2890625 C-12 15 -12 15 -13 13 C-13.39447548 8.81855989 -13.45035186 6.69053952 -11.125 3.125 C-7.54896931 -0.45103069 -5.00281714 -0.50028171 0 0 Z " fill="#E2A348" transform="translate(305,121)"/>
<path d="M0 0 C6.17780478 4.23620899 10.41827777 10.66656058 12 18 C12.51732673 27.4480198 12.51732673 27.4480198 11 32 C11.86882812 31.67257813 12.73765625 31.34515625 13.6328125 31.0078125 C23.25199672 28.12875272 31.73057013 31.2253578 40.23193359 35.70141602 C51.93224351 42.13758698 51.93224351 42.13758698 56 46 C56 46.99 56 47.98 56 49 C51.07998461 50.64000513 46.7505527 50.64306018 41.9375 48.875 C38.9145722 46.94547162 36.34132113 44.82896527 33.7109375 42.40234375 C30.28344868 39.59305497 27.67056243 38.74498346 23.25 38.875 C22.45078125 38.89304688 21.6515625 38.91109375 20.828125 38.9296875 C20.22484375 38.95289063 19.6215625 38.97609375 19 39 C20.7015625 39.928125 20.7015625 39.928125 22.4375 40.875 C25.875 42.75 25.875 42.75 27 45 C27.5811138 52.08958838 27.5811138 52.08958838 25.125 55.9375 C23 58 23 58 21 59 C19.45386986 58.91348369 17.91090613 58.75997364 16.375 58.5625 C15.55773437 58.46066406 14.74046875 58.35882813 13.8984375 58.25390625 C13.27195312 58.17011719 12.64546875 58.08632812 12 58 C11.505 56.515 11.505 56.515 11 55 C10.34 55 9.68 55 9 55 C8.34 53.35 7.68 51.7 7 50 C6.01 50.66 5.02 51.32 4 52 C0.48275862 51.48275862 0.48275862 51.48275862 -1 50 C-1.50555836 45.57636432 -0.13503265 42.82526683 2 39 C1.01 38.67 0.02 38.34 -1 38 C-0.9278125 37.319375 -0.855625 36.63875 -0.78125 35.9375 C0.3408858 24.21741496 0.43586252 12.69202337 -1 1 C-0.67 0.67 -0.34 0.34 0 0 Z " fill="#25A5CF" transform="translate(325,17)"/>
<path d="M0 0 C2.79101724 1.20692638 4.60464028 2.21700243 6 4.98046875 C6.73045817 6.964646 7.37122316 8.98129542 8 11 C8.66 10.01 9.32 9.02 10 8 C14.24255361 8.52193102 16.28328335 9.79331157 19.4375 12.625 C26.72567194 18.70941982 35.17255295 22.58826624 44 26 C40.60047016 29.39952984 36.31351333 29.15402668 31.6875 29.1875 C24.43837337 29.09969093 18.36300331 28.36300331 13 23 C12.30074222 21.68346638 11.62792187 20.35201196 11 19 C10.7215625 20.9490625 10.7215625 20.9490625 10.4375 22.9375 C8.12496183 32.92203982 0.61573252 38.66430513 -7.63671875 43.98046875 C-19.32688588 51 -19.32688588 51 -26 51 C-24.8857393 46.76037392 -23.90079551 43.04154481 -21 39.6875 C-17.31399654 37.61412305 -13.5460932 36.31128728 -9.5234375 35.02734375 C-6.97884386 33.99138689 -5.8405714 32.96885365 -4 31 C-3.34 31 -2.68 31 -2 31 C-0.74335022 28.09399739 0 26.20395416 0 23 C-0.33 23.474375 -0.66 23.94875 -1 24.4375 C-4.01930008 26.79632819 -7.26195121 27.26231921 -11 27 C-13.85993478 25.23535939 -15.49782849 24.00434303 -17 21 C-17.68571429 14.02857143 -17.68571429 14.02857143 -15 10 C-10.92887758 7.28591839 -8.8224083 7.52566476 -4 8 C-3.34 8.33 -2.68 8.66 -2 9 C-2.33 6.69 -2.66 4.38 -3 2 C-2.01 1.34 -1.02 0.68 0 0 Z " fill="#C96068" transform="translate(348,115)"/>
<path d="M0 0 C3.6159107 2.63863753 6.17496818 4.86966482 8 9 C8.21993903 12.13413122 8.30363685 14.85371203 7.49609375 17.90234375 C6.92487856 20.31763948 6.83140771 22.51930872 6.8125 25 C6.79123047 26.2684375 6.79123047 26.2684375 6.76953125 27.5625 C7.01659642 30.17552825 7.78957556 31.70354256 9 34 C9 34.99 9 35.98 9 37 C9.99 37 10.98 37 12 37 C11.814375 36.443125 11.62875 35.88625 11.4375 35.3125 C10.70952639 31.46463947 11.38157244 28.99486173 13.4375 25.6875 C17.43544587 23.05470638 21.35651725 23.2505527 26 24 C29.43238723 26.09291904 29.86428892 27.51144011 30.9375 31.375 C31.00868355 35.50364582 30.2150419 37.55437927 28 41 C27.01 41.495 27.01 41.495 26 42 C27.65 42.66 29.3 43.32 31 44 C31 45.98 31 47.96 31 50 C22.50813856 51.57256693 14.44871008 50.67709702 7 46 C1.4950612 41.39121403 -0.84321356 36.47403729 -1.6875 29.5 C-2.39389083 20.07184489 -2.68000393 10.33335518 -1 1 C-0.67 0.67 -0.34 0.34 0 0 Z " fill="#9F5196" transform="translate(263,64)"/>
<path d="M0 0 C4.27712773 2.30306878 6.69961588 4.09884765 8.25 8.75 C8.33315752 10.81498892 8.35735878 12.8825789 8.34765625 14.94921875 C8.34443359 16.15771484 8.34121094 17.36621094 8.33789062 18.61132812 C8.32532227 20.5052832 8.32532227 20.5052832 8.3125 22.4375 C8.30798828 23.71173828 8.30347656 24.98597656 8.29882812 26.29882812 C8.28702873 29.44926564 8.27056597 32.59960949 8.25 35.75 C6.25045254 35.79254356 4.24958364 35.79080783 2.25 35.75 C0.58589132 34.08589132 1.06256529 32.04863111 1.00390625 29.76171875 C0.97103516 28.74529297 0.93816406 27.72886719 0.90429688 26.68164062 C0.84343333 24.53069706 0.78610205 22.37965045 0.73242188 20.22851562 C0.68118164 18.69807617 0.68118164 18.69807617 0.62890625 17.13671875 C0.6038501 16.20045654 0.57879395 15.26419434 0.55297852 14.29956055 C0.23734166 11.64348024 -0.31389647 9.99408834 -1.75 7.75 C-4.65423012 6.05586576 -6.38557822 5.72722364 -9.75 5.9375 C-13.03220745 6.82643118 -15.12891471 7.56576226 -17.75 9.75 C-19.66174874 14.48385401 -19.95694082 18.67994988 -19.75 23.75 C-19.234375 23.110625 -18.71875 22.47125 -18.1875 21.8125 C-15.00865126 19.12270491 -12.87437003 18.89471474 -8.75 18.75 C-6 19.25 -6 19.25 -3.75 20.75 C-1.75 24 -1.75 24 -0.75 27.75 C-1.80816088 31.04897215 -2.59227591 33.02050933 -5.56640625 34.89453125 C-9.55178305 36.45588638 -13.54797552 36.28769982 -17.75 35.75 C-22.24473627 33.54349311 -24.56536493 31.23425093 -26.75 26.75 C-29.18304172 19.45087485 -27.52616094 13.37632859 -24.25 6.6875 C-17.81169223 -0.87751163 -9.29747304 -3.09915768 0 0 Z M-11.75 24.75 C-12.4314823 26.64179203 -12.4314823 26.64179203 -12.75 28.75 C-12.09 29.41 -11.43 30.07 -10.75 30.75 C-10.42 29.1 -10.09 27.45 -9.75 25.75 C-10.41 25.42 -11.07 25.09 -11.75 24.75 Z " fill="#1D2A43" transform="translate(270.75,186.25)"/>
<path d="M0 0 C1.32 0 2.64 0 4 0 C7.54996607 6.18708372 9.95947145 10.80396411 9 18 C7.01427242 23.36146447 7.01427242 23.36146447 4.17578125 25.1484375 C1.77769204 26.08700743 0.00458002 26.26737448 -2.5625 26.25 C-3.32691406 26.25515625 -4.09132813 26.2603125 -4.87890625 26.265625 C-7 26 -7 26 -10 24 C-10 23.34 -10 22.68 -10 22 C-10.66 22 -11.32 22 -12 22 C-12.13277344 21.16855469 -12.26554687 20.33710938 -12.40234375 19.48046875 C-12.57894531 18.39378906 -12.75554687 17.30710938 -12.9375 16.1875 C-13.11152344 15.10855469 -13.28554688 14.02960938 -13.46484375 12.91796875 C-13.93871921 9.95066644 -13.93871921 9.95066644 -15 7 C-17.97 7.66 -20.94 8.32 -24 9 C-22.86798622 10.29635131 -22.86798622 10.29635131 -20.0625 10.8125 C-17 12 -17 12 -15.5625 13.6875 C-14.73258476 17.09937375 -15.13853137 19.61565894 -16 23 C-17.5625 24.9375 -17.5625 24.9375 -20 26 C-24.1042277 26.39087883 -26.93877079 26.2999126 -30.875 25.1875 C-34.45982172 21.49724235 -34.94371049 17.03087484 -35 12 C-33.92942779 7.69409561 -31.41375556 5.33617639 -28 2.5625 C-23.0349023 0.0093316 -17.42092328 0.67955133 -12 1 C-12 1.66 -12 2.32 -12 3 C-11.38125 3.0825 -10.7625 3.165 -10.125 3.25 C-8 4 -8 4 -6.8984375 5.76171875 C-5.67856187 8.80080022 -5.56237745 11.63775434 -5.34375 14.87890625 C-5.10252039 17.29520543 -5.10252039 17.29520543 -3 20 C-2.01 19.67 -1.02 19.34 0 19 C1.19588752 16.07322265 0.98833846 14.04870493 0.125 11.0625 C-0.06578125 10.37285156 -0.2565625 9.68320313 -0.453125 8.97265625 C-0.63359375 8.32167969 -0.8140625 7.67070312 -1 7 C-1.34665557 5.33605325 -1.68676972 3.67056149 -2 2 C-1.34 2 -0.68 2 0 2 C0 1.34 0 0.68 0 0 Z M-27 16 C-27.33 16.66 -27.66 17.32 -28 18 C-27.34 18 -26.68 18 -26 18 C-26 18.66 -26 19.32 -26 20 C-25.01 20.33 -24.02 20.66 -23 21 C-22.67 19.68 -22.34 18.36 -22 17 C-23.65 16.67 -25.3 16.34 -27 16 Z " fill="#1A293F" transform="translate(408,196)"/>
<path d="M0 0 C0 5.94 0 11.88 0 18 C1.32 17.67 2.64 17.34 4 17 C3.98259766 15.17662109 3.98259766 15.17662109 3.96484375 13.31640625 C3.95546722 11.73177236 3.94636687 10.14713682 3.9375 8.5625 C3.92912109 7.76005859 3.92074219 6.95761719 3.91210938 6.13085938 C3.9034857 4.08704779 3.9477185 2.04316098 4 0 C5 -1 5 -1 8 -1.125 C11 -1 11 -1 12 0 C12.08631874 1.34267413 12.10706473 2.68974322 12.09765625 4.03515625 C12.09443359 4.84404297 12.09121094 5.65292969 12.08789062 6.48632812 C12.07951172 7.33646484 12.07113281 8.18660156 12.0625 9.0625 C12.05798828 9.91650391 12.05347656 10.77050781 12.04882812 11.65039062 C12.03700373 13.76695663 12.01906769 15.88348685 12 18 C15.63 18 19.26 18 23 18 C23 12.06 23 6.12 23 0 C24.98 -0.33 26.96 -0.66 29 -1 C30 0 30 0 30.11352539 2.31665039 C30.10828857 3.31688232 30.10305176 4.31711426 30.09765625 5.34765625 C30.09443359 6.42724609 30.09121094 7.50683594 30.08789062 8.61914062 C30.07532227 10.32360352 30.07532227 10.32360352 30.0625 12.0625 C30.05798828 13.20267578 30.05347656 14.34285156 30.04882812 15.51757812 C30.03699747 18.34510351 30.0205141 21.1725264 30 24 C25.35522856 24.02472039 20.71049543 24.04286968 16.06567383 24.05493164 C14.48558892 24.05996014 12.90550866 24.06678378 11.32543945 24.07543945 C9.05418754 24.08756992 6.78299715 24.09324313 4.51171875 24.09765625 C3.45219246 24.10539818 3.45219246 24.10539818 2.3712616 24.11329651 C-0.70254391 24.11364803 -3.0590442 23.9803186 -6 23 C-7.08372641 20.17167209 -7.11795047 17.45666976 -7.09765625 14.453125 C-7.09443359 13.60878906 -7.09121094 12.76445312 -7.08789062 11.89453125 C-7.07951172 11.02183594 -7.07113281 10.14914063 -7.0625 9.25 C-7.05798828 8.36183594 -7.05347656 7.47367188 -7.04882812 6.55859375 C-7.037074 4.37232671 -7.02064249 2.18619821 -7 0 C-5 -1 -5 -1 0 0 Z " fill="#05152B" transform="translate(335,198)"/>
<path d="M0 0 C1.12019531 -0.00128906 2.24039062 -0.00257813 3.39453125 -0.00390625 C4.57402344 -0.00003906 5.75351562 0.00382813 6.96875 0.0078125 C8.73798828 0.00201172 8.73798828 0.00201172 10.54296875 -0.00390625 C12.22326172 -0.00197266 12.22326172 -0.00197266 13.9375 0 C14.97326172 0.00112793 16.00902344 0.00225586 17.07617188 0.00341797 C19.46875 0.1328125 19.46875 0.1328125 20.46875 1.1328125 C20.50938832 2.79898365 20.511471 4.46669345 20.46875 6.1328125 C17.82875 6.1328125 15.18875 6.1328125 12.46875 6.1328125 C12.46875 7.1228125 12.46875 8.1128125 12.46875 9.1328125 C14.77875 9.1328125 17.08875 9.1328125 19.46875 9.1328125 C19.79875 10.7828125 20.12875 12.4328125 20.46875 14.1328125 C19.355 14.3390625 18.24125 14.5453125 17.09375 14.7578125 C15.8975 15.2115625 14.70125 15.6653125 13.46875 16.1328125 C12.29792122 19.06195415 12.29792122 19.06195415 11.46875 22.1328125 C6.86525761 25.63905671 2.90877392 25.69892152 -2.703125 25.546875 C-5.53125 25.1328125 -5.53125 25.1328125 -8.78125 23.0078125 C-10.80140195 19.68899144 -11.04027925 17.95053189 -10.53125 14.1328125 C-10.20125 13.4728125 -9.87125 12.8128125 -9.53125 12.1328125 C-8.54125 12.1328125 -7.55125 12.1328125 -6.53125 12.1328125 C-6.54285156 11.35035156 -6.55445313 10.56789062 -6.56640625 9.76171875 C-6.57542969 8.74980469 -6.58445312 7.73789063 -6.59375 6.6953125 C-6.60535156 5.68597656 -6.61695313 4.67664063 -6.62890625 3.63671875 C-6.44867146 -0.98450137 -4.0548698 0.0044157 0 0 Z M0.46875 6.1328125 C0.46875 7.4528125 0.46875 8.7728125 0.46875 10.1328125 C2.11875 9.8028125 3.76875 9.4728125 5.46875 9.1328125 C5.46875 8.1428125 5.46875 7.1528125 5.46875 6.1328125 C3.81875 6.1328125 2.16875 6.1328125 0.46875 6.1328125 Z M-3.53125 16.1328125 C-3.53125 16.7928125 -3.53125 17.4528125 -3.53125 18.1328125 C-2.87125 18.1328125 -2.21125 18.1328125 -1.53125 18.1328125 C-1.53125 18.7928125 -1.53125 19.4528125 -1.53125 20.1328125 C0.11875 19.8028125 1.76875 19.4728125 3.46875 19.1328125 C3.46875 18.4728125 3.46875 17.8128125 3.46875 17.1328125 C4.12875 16.8028125 4.78875 16.4728125 5.46875 16.1328125 C0.85367226 15.09066559 0.85367226 15.09066559 -3.53125 16.1328125 Z " fill="#27374B" transform="translate(298.53125,196.8671875)"/>
<path d="M0 0 C-0.48050164 5.04526718 -1.8003286 8.06512902 -5 12 C-7.52182319 13.17836885 -9.7512602 14.05817535 -12.375 14.875 C-18.85485236 17.15437239 -22.95799026 19.68715678 -26 26 C-27.73402586 31.20207758 -27.64582277 35.4556412 -25.5625 40.4375 C-24.23099846 42.84753488 -24.23099846 42.84753488 -23 44 C-22.95936168 45.66617115 -22.957279 47.33388095 -23 49 C-25.475 49.495 -25.475 49.495 -28 50 C-32.85434324 43.47174529 -35.71816026 36.43531365 -35.33203125 28.18359375 C-34.2070398 20.78512054 -29.73432692 16.06941876 -24.19921875 11.3203125 C-17.42609054 6.40793379 -8.54838538 0 0 0 Z " fill="#797C80" transform="translate(322,31)"/>
<path d="M0 0 C3.0625 1.0625 3.0625 1.0625 5.0625 2.0625 C5.0234375 3.890625 5.0234375 3.890625 4.0625 6.0625 C1.58182636 7.16099781 -0.73741006 8.01132201 -3.3125 8.8125 C-10.17892461 11.13101303 -15.23029764 13.95125217 -20.8984375 18.5234375 C-22.9375 20.0625 -22.9375 20.0625 -24.9375 20.0625 C-24.9375 20.7225 -24.9375 21.3825 -24.9375 22.0625 C-26.2575 22.3925 -27.5775 22.7225 -28.9375 23.0625 C-27.35324495 13.08169315 -23.13612096 6.02513343 -14.9375 0.0625 C-10.51219875 -2.15015062 -4.64452531 -1.30749242 0 0 Z " fill="#9F5598" transform="translate(278.9375,113.9375)"/>
<path d="M0 0 C4.25878829 4.25878829 6.66279839 9.4234039 6.6875 15.5 C6.605 16.469375 6.5225 17.43875 6.4375 18.4375 C1.98915651 17.94841511 0.27737097 16.58985843 -2.75 13.375 C-8.059974 8.32326182 -13.83519583 5.74381243 -20.58081055 3.00170898 C-21.33918213 2.69305908 -22.09755371 2.38440918 -22.87890625 2.06640625 C-23.56412354 1.79900635 -24.24934082 1.53160645 -24.95532227 1.25610352 C-26.5625 0.4375 -26.5625 0.4375 -27.5625 -1.5625 C-18.01306813 -4.05032794 -9.14704982 -4.01186396 0 0 Z " fill="#75777A" transform="translate(280.5625,56.5625)"/>
<path d="M0 0 C3.75514634 2.0408404 4.77457968 3.28395898 6.0625 7.375 C5.98603205 11.81014124 4.80644332 13.63226802 2 17 C-1.10048928 18.55024464 -3.57894218 18.28992015 -7 18 C-9.875 16.4375 -9.875 16.4375 -12 14 C-13.14888518 10.05070721 -13.43129396 7.97041141 -11.75 4.1875 C-8.24427712 -0.1946536 -5.40218075 -0.55884628 0 0 Z " fill="#7C7F7E" transform="translate(308,56)"/>
<path d="M0 0 C0 5.94 0 11.88 0 18 C1.65 17.67 3.3 17.34 5 17 C5 18.98 5 20.96 5 23 C12.92 23 20.84 23 29 23 C28.67 15.08 28.34 7.16 28 -1 C28.66 -0.67 29.32 -0.34 30 0 C30 7.92 30 15.84 30 24 C25.35516282 24.02295636 20.71052253 24.0428696 16.06567383 24.05493164 C14.48558892 24.05996014 12.90550866 24.06678378 11.32543945 24.07543945 C9.05418754 24.08756992 6.78299715 24.09324313 4.51171875 24.09765625 C3.45219246 24.10539818 3.45219246 24.10539818 2.3712616 24.11329651 C-0.70254391 24.11364803 -3.0590442 23.9803186 -6 23 C-7.08372641 20.17167209 -7.11795047 17.45666976 -7.09765625 14.453125 C-7.09443359 13.60878906 -7.09121094 12.76445312 -7.08789062 11.89453125 C-7.07951172 11.02183594 -7.07113281 10.14914063 -7.0625 9.25 C-7.05798828 8.36183594 -7.05347656 7.47367188 -7.04882812 6.55859375 C-7.037074 4.37232671 -7.02064249 2.18619821 -7 0 C-5 -1 -5 -1 0 0 Z " fill="#374558" transform="translate(335,198)"/>
<path d="M0 0 C2 2 2 2 2.25 4.4375 C2 7 2 7 0 10 C2.475 10.99 2.475 10.99 5 12 C5.33 14.31 5.66 16.62 6 19 C7.45736087 19.19491452 8.91594593 19.38069358 10.375 19.5625 C11.18710937 19.66691406 11.99921875 19.77132812 12.8359375 19.87890625 C15.04899186 20.18237328 15.04899186 20.18237328 17 19 C17.54228093 17.17741447 17.54228093 17.17741447 17.75 15.0625 C17.84796875 14.35222656 17.9459375 13.64195313 18.046875 12.91015625 C18.21361712 10.7539192 18.21361712 10.7539192 16 9 C16.375 6.875 16.375 6.875 17 5 C21.69689379 8.75751503 21.69689379 8.75751503 22.47265625 11.9375 C22.63990369 15.77691958 22.23408391 17.63326854 20.125 20.9375 C18 23 18 23 16 24 C14.45386986 23.91348369 12.91090613 23.75997364 11.375 23.5625 C10.55773437 23.46066406 9.74046875 23.35882813 8.8984375 23.25390625 C8.27195312 23.17011719 7.64546875 23.08632812 7 23 C6.67 22.01 6.34 21.02 6 20 C5.34 20 4.68 20 4 20 C3.34 18.35 2.68 16.7 2 15 C1.01 15.66 0.02 16.32 -1 17 C-4.51724138 16.48275862 -4.51724138 16.48275862 -6 15 C-6.79280107 9.92607317 -4.45224455 5.33170205 -2 1 C-1.34 0.67 -0.68 0.34 0 0 Z " fill="#379FC1" transform="translate(330,52)"/>
<path d="M0 0 C3.3 0 6.6 0 10 0 C9.67 0.99 9.34 1.98 9 3 C5.7 3.66 2.4 4.32 -1 5 C-1.33 5.99 -1.66 6.98 -2 8 C-1.34 8 -0.68 8 0 8 C0 8.66 0 9.32 0 10 C4.455 9.505 4.455 9.505 9 9 C8.67 8.01 8.34 7.02 8 6 C8.66 6 9.32 6 10 6 C10 5.34 10 4.68 10 4 C10.99 4 11.98 4 13 4 C13.48828125 9.95703125 13.48828125 9.95703125 13 12 C9.42145079 14.89940849 6.47285142 15.43176631 1.9375 15.4375 C0.91527344 15.45683594 -0.10695313 15.47617188 -1.16015625 15.49609375 C-4.68285711 14.88071134 -5.85806313 13.81700228 -8 11 C-8.31452272 7.85477278 -8.42041821 5.84083641 -7 3 C-4.67843403 2.59270772 -2.3431213 2.25561323 0 2 C0 1.34 0 0.68 0 0 Z " fill="#132139" transform="translate(297,207)"/>
<path d="M0 0 C1.98 0 3.96 0 6 0 C7.32 2.31 8.64 4.62 10 7 C10.33 4.69 10.66 2.38 11 0 C12.32 0 13.64 0 15 0 C15 5.28 15 10.56 15 16 C10 16 10 16 8.41796875 14.46875 C8.01191406 13.8190625 7.60585938 13.169375 7.1875 12.5 C6.55908203 11.52546875 6.55908203 11.52546875 5.91796875 10.53125 C5.61503906 10.0259375 5.31210937 9.520625 5 9 C4.67 11.31 4.34 13.62 4 16 C2.68 16 1.36 16 0 16 C0 10.72 0 5.44 0 0 Z " fill="#2B384A" transform="translate(293,239)"/>
<path d="M0 0 C2.17578125 1.16015625 2.17578125 1.16015625 4 3 C4.390625 5.69921875 4.390625 5.69921875 4.25 8.6875 C4.21390625 9.68136719 4.1778125 10.67523438 4.140625 11.69921875 C4.07101562 12.83810547 4.07101562 12.83810547 4 14 C-0.35110482 14.97189627 -3.62244644 15.13492129 -8 14 C-10 11.75 -10 11.75 -11 9 C-10.72323446 6.09396188 -9.92416454 3.77249363 -9 1 C-5.70952793 -0.09682402 -3.44927034 -0.28157309 0 0 Z " fill="#F6A01D" transform="translate(305,123)"/>
<path d="M0 0 C0.763125 0.20625 1.52625 0.4125 2.3125 0.625 C2.3125 1.285 2.3125 1.945 2.3125 2.625 C1.6525 2.625 0.9925 2.625 0.3125 2.625 C0.3125 3.285 0.3125 3.945 0.3125 4.625 C-0.3475 4.625 -1.0075 4.625 -1.6875 4.625 C-1.7803125 5.5221875 -1.7803125 5.5221875 -1.875 6.4375 C-3.05045677 9.6021913 -4.67315762 10.21830689 -7.6875 11.625 C-9.68423484 11.97736497 -11.68400739 12.31334559 -13.6875 12.625 C-14.3475 13.285 -15.0075 13.945 -15.6875 14.625 C-15.6875 13.965 -15.6875 13.305 -15.6875 12.625 C-18.66991547 11.85178118 -21.66330475 11.21303797 -24.6875 10.625 C-24.625 8.8125 -24.625 8.8125 -23.6875 6.625 C-18.72307312 3.81901959 -13.7476941 2.97460947 -8.140625 2.15234375 C-4.75137003 1.42376187 -3.56002381 -0.49674751 0 0 Z " fill="#B1CD50" transform="translate(385.6875,70.375)"/>
<path d="M0 0 C2.8125 0.625 2.8125 0.625 6 2 C7.875 5.125 7.875 5.125 9 8 C9.33 5.69 9.66 3.38 10 1 C11.32 1 12.64 1 14 1 C14 6.28 14 11.56 14 17 C11 18 11 18 8 17 C6.83203125 15.15234375 6.83203125 15.15234375 5.8125 12.9375 C5.29623047 11.83728516 5.29623047 11.83728516 4.76953125 10.71484375 C4.51558594 10.14894531 4.26164062 9.58304688 4 9 C3.67 11.64 3.34 14.28 3 17 C1.68 17 0.36 17 -1 17 C-1.02691685 14.54159395 -1.04679802 12.08348118 -1.0625 9.625 C-1.07087891 8.92632812 -1.07925781 8.22765625 -1.08789062 7.5078125 C-1.11328125 2.2265625 -1.11328125 2.2265625 0 0 Z " fill="#29394A" transform="translate(420,238)"/>
<path d="M0 0 C4.70925902 3.02103409 6.73282192 5.55113424 8 11 C8.66 11 9.32 11 10 11 C10 11.99 10 12.98 10 14 C5.65714286 18 5.65714286 18 3 18 C2.67 18.99 2.34 19.98 2 21 C-1.55265362 22.87675518 -4.64093609 23.29603693 -8.625 23.3125 C-9.56601562 23.32925781 -10.50703125 23.34601563 -11.4765625 23.36328125 C-14 23 -14 23 -17 20 C-12.71 20 -8.42 20 -4 20 C-5.299375 19.21625 -6.59875 18.4325 -7.9375 17.625 C-11.875 15.25 -11.875 15.25 -13 13 C-13.39447548 8.81855989 -13.45035186 6.69053952 -11.125 3.125 C-7.54896931 -0.45103069 -5.00281714 -0.50028171 0 0 Z M-9 3 C-10.35941049 5.51490941 -11.09755941 7.19513483 -10.75 10.0625 C-10.5025 10.701875 -10.255 11.34125 -10 12 C-9.65388672 13.02480469 -9.65388672 13.02480469 -9.30078125 14.0703125 C-8.12967177 16.27121647 -8.12967177 16.27121647 -5.43359375 16.64453125 C-3.95052734 16.72767578 -3.95052734 16.72767578 -2.4375 16.8125 C-1.44621094 16.88082031 -0.45492188 16.94914062 0.56640625 17.01953125 C2.94888366 17.2849194 2.94888366 17.2849194 4 16 C4.27732802 13.50932826 4.27732802 13.50932826 4.3125 10.625 C4.34988281 9.64789063 4.38726562 8.67078125 4.42578125 7.6640625 C4.24911924 4.89222132 4.24911924 4.89222132 2.171875 3.1640625 C-1.65221341 1.11446116 -4.99899006 1.66633002 -9 3 Z " fill="#E5AB56" transform="translate(305,121)"/>
<path d="M0 0 C2.01696222 3.02544334 2.25811096 3.61067382 2.1875 7 C2.17783203 8.0209375 2.17783203 8.0209375 2.16796875 9.0625 C2 11 2 11 1 14 C-2.45577579 15.7278879 -6.22102693 15.47756253 -10 15 C-12.0625 13.5 -12.0625 13.5 -13 11 C-13.54764781 7.12678069 -13.55300734 4.07836431 -11.75 0.5625 C-7.77804239 -2.98389072 -4.68884432 -2.03862797 0 0 Z M-7 3 C-8.30859649 4.69712207 -8.30859649 4.69712207 -9 7 C-7.71815438 9.74832154 -7.71815438 9.74832154 -6 12 C-4.68 11.34 -3.36 10.68 -2 10 C-1.83312552 7.58354218 -1.83312552 7.58354218 -2 5 C-2.66 4.34 -3.32 3.68 -4 3 C-4.99 3 -5.98 3 -7 3 Z " fill="#162333" transform="translate(259,240)"/>
<path d="M0 0 C0 0.66 0 1.32 0 2 C1.32 2.33 2.64 2.66 4 3 C4.33 4.32 4.66 5.64 5 7 C3.68 7.33 2.36 7.66 1 8 C1 7.34 1 6.68 1 6 C0.34 5.67 -0.32 5.34 -1 5 C-1.33 6.32 -1.66 7.64 -2 9 C-2.33 8.01 -2.66 7.02 -3 6 C-10.45062321 7.14380501 -10.45062321 7.14380501 -16 12 C-16.99 11.01 -17.98 10.02 -19 9 C-19.66 11.97 -20.32 14.94 -21 18 C-21.33 18 -21.66 18 -22 18 C-23.05630956 13.68673597 -23.19425429 11.4775418 -21.5 7.3125 C-16.07621182 -0.82318226 -8.96289965 -0.52982658 0 0 Z " fill="#263247" transform="translate(396,197)"/>
<path d="M0 0 C9.33333333 0 9.33333333 0 13 2 C14.60551137 5.21102274 14.46807221 8.51699208 14 12 C12.5625 14.5 12.5625 14.5 10 16 C6.91796267 16.31828269 4.11507599 16.18323976 1 16 C0.67 10.72 0.34 5.44 0 0 Z M5 4 C5 6.97 5 9.94 5 13 C6.32 12.67 7.64 12.34 9 12 C9.67801034 9.09926819 9.67801034 9.09926819 10 6 C9.34 5.34 8.68 4.68 8 4 C7.01 4 6.02 4 5 4 Z " fill="#323E4B" transform="translate(317,239)"/>
<path d="M0 0 C2.375 1.5 2.375 1.5 4 4 C4.68701181 7.76698612 4.40382715 10.9231276 3.0625 14.5 C0.12681459 16.63504394 -2.33850329 16.5604356 -5.90234375 16.375 C-8 16 -8 16 -10.0625 14.5 C-11.4559321 10.78418107 -11.31537114 7.97367642 -11 4 C-8.06920427 -0.3961936 -5.05353939 -0.51566729 0 0 Z M-6 4 C-6.33 6.31 -6.66 8.62 -7 11 C-6.34 11 -5.68 11 -5 11 C-5 11.66 -5 12.32 -5 13 C-4.01 13 -3.02 13 -2 13 C-2 12.34 -2 11.68 -2 11 C-1.34 11 -0.68 11 0 11 C0.04254356 9.00045254 0.04080783 6.99958364 0 5 C-1.06645115 3.70366379 -1.06645115 3.70366379 -3.5625 3.9375 C-4.366875 3.958125 -5.17125 3.97875 -6 4 Z " fill="#212C3E" transform="translate(406,239)"/>
<path d="M0 0 C3.0625 0.6875 3.0625 0.6875 5.5 3.25 C7.36615923 7.3555503 7.30243843 9.38904677 6.0625 13.6875 C3.0625 15.6875 3.0625 15.6875 -0.5 15.375 C-3.9375 14.6875 -3.9375 14.6875 -5.9375 13.6875 C-6.14903631 9.52728592 -6.27875965 6.59752574 -4.8125 2.6875 C-2.9375 0.6875 -2.9375 0.6875 0 0 Z " fill="#08ACE8" transform="translate(341.9375,57.3125)"/>
<path d="M0 0 C1.32 0.66 2.64 1.32 4 2 C3.98839844 2.62648437 3.97679687 3.25296875 3.96484375 3.8984375 C3.95582031 4.71570313 3.94679688 5.53296875 3.9375 6.375 C3.92589844 7.18710938 3.91429687 7.99921875 3.90234375 8.8359375 C3.85533666 11.04937142 3.85533666 11.04937142 5 13 C5.66 13 6.32 13 7 13 C7.33 9.37 7.66 5.74 8 2 C9.65 1.67 11.3 1.34 13 1 C13.05449838 2.72880982 13.09301688 4.45812712 13.125 6.1875 C13.14820313 7.15042969 13.17140625 8.11335937 13.1953125 9.10546875 C12.9913544 12.12812778 12.26874632 14.26769985 11 17 C9.56344146 17.08131463 8.1255517 17.13933559 6.6875 17.1875 C5.48673828 17.23970703 5.48673828 17.23970703 4.26171875 17.29296875 C2 17 2 17 0.22265625 15.90234375 C-1.60068889 13.06538182 -1.32389599 10.70770929 -1.25 7.375 C-1.23453125 6.20710937 -1.2190625 5.03921875 -1.203125 3.8359375 C-1 1 -1 1 0 0 Z " fill="#24303E" transform="translate(271,238)"/>
<path d="M0 0 C1.65 0 3.3 0 5 0 C5.84212256 1.91282125 6.67338864 3.83042473 7.5 5.75 C7.9640625 6.81734375 8.428125 7.8846875 8.90625 8.984375 C10 12 10 12 10 16 C8.35 16 6.7 16 5 16 C4.67 15.01 4.34 14.02 4 13 C1.98491642 12.26676204 1.98491642 12.26676204 0 12 C-0.33 13.32 -0.66 14.64 -1 16 C-2.32 16 -3.64 16 -5 16 C-4.55643705 9.79011871 -3.08467498 5.39459439 0 0 Z " fill="#263142" transform="translate(344,239)"/>
<path d="M0 0 C3.85645121 -0.22036864 6.49223216 0.39644899 10 2 C10.42751439 7.21567553 10.42751439 7.21567553 10 10 C7.9375 12.0625 7.9375 12.0625 5 13 C-1.42857143 12.57142857 -1.42857143 12.57142857 -3 11 C-3.07179964 9.48071962 -3.08392007 7.95832518 -3.0625 6.4375 C-3.05347656 5.61121094 -3.04445313 4.78492188 -3.03515625 3.93359375 C-3.02355469 3.29550781 -3.01195312 2.65742188 -3 2 C-2.01 2 -1.02 2 0 2 C0 1.34 0 0.68 0 0 Z " fill="#E74C54" transform="translate(336,126)"/>
<path d="M0 0 C0.66 0.99 1.32 1.98 2 3 C5.05429073 4.21284876 5.05429073 4.21284876 8 5 C8 5.99 8 6.98 8 8 C7.071875 7.855625 6.14375 7.71125 5.1875 7.5625 C0.14594684 6.83635037 -4.92629204 6.4312193 -10 6 C-9.525625 6.474375 -9.05125 6.94875 -8.5625 7.4375 C-7.70833333 8.29166667 -6.85416667 9.14583333 -6 10 C-4.33678518 10.35015049 -2.66965451 10.68197057 -1 11 C-0.01 11.33 0.98 11.66 2 12 C2 12.66 2 13.32 2 14 C-1.63 13.67 -5.26 13.34 -9 13 C-9.66 14.65 -10.32 16.3 -11 18 C-11.66 18 -12.32 18 -13 18 C-13 20.31 -13 22.62 -13 25 C-13.33 25 -13.66 25 -14 25 C-14.16682272 20.07872966 -14.24828052 16.49656104 -12 12 C-12.515625 11.608125 -13.03125 11.21625 -13.5625 10.8125 C-14.036875 10.214375 -14.51125 9.61625 -15 9 C-14.58984375 6.38671875 -14.58984375 6.38671875 -14 4 C-12.4176994 3.66179834 -10.83410625 3.32964061 -9.25 3 C-8.36828125 2.814375 -7.4865625 2.62875 -6.578125 2.4375 C-4 2 -4 2 0 2 C0 1.34 0 0.68 0 0 Z " fill="#B6C777" transform="translate(365,79)"/>
<path d="M0 0 C0.99 0.33 1.98 0.66 3 1 C2.67 2.32 2.34 3.64 2 5 C0.68 5.33 -0.64 5.66 -2 6 C-2 8.97 -2 11.94 -2 15 C-0.68 15.66 0.64 16.32 2 17 C2 17.66 2 18.32 2 19 C2.66 19 3.32 19 4 19 C4.474375 19.969375 4.94875 20.93875 5.4375 21.9375 C6.70193947 24.80477437 6.70193947 24.80477437 8 26 C8.04063832 27.66617115 8.042721 29.33388095 8 31 C6.35 31.33 4.7 31.66 3 32 C-1.87529536 25.4435683 -4.61851237 18.48544263 -4.37109375 10.21875 C-3.72312836 6.34459903 -1.96457405 3.37661164 0 0 Z " fill="#7A7D80" transform="translate(291,49)"/>
<path d="M0 0 C-0.0390625 1.828125 -0.0390625 1.828125 -1 4 C-3.48067364 5.09849781 -5.79991006 5.94882201 -8.375 6.75 C-15.24142461 9.06851303 -20.29279764 11.88875217 -25.9609375 16.4609375 C-28 18 -28 18 -30 18 C-30 18.66 -30 19.32 -30 20 C-31.32 20.33 -32.64 20.66 -34 21 C-33.125 15.25 -33.125 15.25 -32 13 C-31.34 13 -30.68 13 -30 13 C-30 12.34 -30 11.68 -30 11 C-28.68 11 -27.36 11 -26 11 C-25.34 10.34 -24.68 9.68 -24 9 C-23.34 9 -22.68 9 -22 9 C-20.50441112 8.41538651 -19.02689871 7.78385919 -17.5625 7.125 C-16.78003906 6.77695313 -15.99757813 6.42890625 -15.19140625 6.0703125 C-12.39785141 4.70590247 -10.19969201 3.19969201 -8 1 C-3.53125 -1.17708333 -3.53125 -1.17708333 0 0 Z " fill="#8B5F89" transform="translate(284,116)"/>
<path d="M0 0 C3 0.125 3 0.125 4 1.125 C4.08631874 2.46767413 4.10706473 3.81474322 4.09765625 5.16015625 C4.09443359 5.96904297 4.09121094 6.77792969 4.08789062 7.61132812 C4.07951172 8.46146484 4.07113281 9.31160156 4.0625 10.1875 C4.05798828 11.04150391 4.05347656 11.89550781 4.04882812 12.77539062 C4.03700373 14.89195663 4.01906769 17.00848685 4 19.125 C7.63 19.125 11.26 19.125 15 19.125 C15 13.185 15 7.245 15 1.125 C15.33 1.125 15.66 1.125 16 1.125 C16.33 7.395 16.66 13.665 17 20.125 C12.38 20.125 7.76 20.125 3 20.125 C2.67 18.145 2.34 16.165 2 14.125 C-0.15811388 15.07229537 -0.15811388 15.07229537 -2 17.125 C-2 12.175 -2 7.225 -2 2.125 C-2.66 1.795 -3.32 1.465 -4 1.125 C-3 0.125 -3 0.125 0 0 Z " fill="#26344B" transform="translate(343,196.875)"/>
<path d="M0 0 C3 1 3 1 3.984375 2.90625 C6.60448365 11.78253643 5.81161632 19.92554278 5 29 C5 29.99 5 30.98 5 32 C6.32 32.33 7.64 32.66 9 33 C9.66 28.05 10.32 23.1 11 18 C11.66 18 12.32 18 13 18 C12.9131197 20.9389507 12.80626233 23.87481289 12.6875 26.8125 C12.65366211 28.06256836 12.65366211 28.06256836 12.61914062 29.33789062 C12.58369141 30.14033203 12.54824219 30.94277344 12.51171875 31.76953125 C12.48553467 32.50792236 12.45935059 33.24631348 12.43237305 34.00708008 C11.89767037 36.47166391 10.90034653 37.40052324 9 39 C4.46691694 34.68871917 2.26521825 31.38206401 1.9453125 25.05859375 C2.01038305 22.60915229 2.44951171 20.38544924 3 18 C3.3933435 11.90317568 2.58271532 8.48827005 0 3 C0 2.01 0 1.02 0 0 Z " fill="#B0C279" transform="translate(371,94)"/>
<path d="M0 0 C0.33 0 0.66 0 1 0 C1 8.91 1 17.82 1 27 C-0.98 27 -2.96 27 -5 27 C-6 26 -6 26 -6.11352539 24.05053711 C-6.10567017 22.8015564 -6.10567017 22.8015564 -6.09765625 21.52734375 C-6.09443359 20.62822266 -6.09121094 19.72910156 -6.08789062 18.80273438 C-6.07951172 17.85720703 -6.07113281 16.91167969 -6.0625 15.9375 C-6.05798828 14.98810547 -6.05347656 14.03871094 -6.04882812 13.06054688 C-6.0370011 10.70696935 -6.02052025 8.35351523 -6 6 C-5.67 6 -5.34 6 -5 6 C-5 11.28 -5 16.56 -5 22 C-3.68737429 20.91447634 -3.68737429 20.91447634 -3.90234375 18.27734375 C-3.91394531 17.17519531 -3.92554688 16.07304687 -3.9375 14.9375 C-3.95103516 13.28041016 -3.95103516 13.28041016 -3.96484375 11.58984375 C-3.97644531 10.73519531 -3.98804688 9.88054687 -4 9 C-3.34 9.33 -2.68 9.66 -2 10 C-1.34 6.7 -0.68 3.4 0 0 Z " fill="#25364C" transform="translate(278,195)"/>
<path d="M0 0 C0.33 0.99 0.66 1.98 1 3 C2.051875 3.8971875 2.051875 3.8971875 3.125 4.8125 C5 7 5 7 5 10 C3.88214482 13.35356555 2.66654406 14.73747776 0 17 C-0.66 17.66 -1.32 18.32 -2 19 C-6.08136534 18.92441916 -8.28934953 18.60131963 -11.4375 15.9375 C-13.45975194 12.13566636 -13.96035454 9.21536153 -13 5 C-9.30474011 -0.54288984 -6.16029988 -0.52205931 0 0 Z M-8 3 C-8 3.66 -8 4.32 -8 5 C-8.99 5 -9.98 5 -11 5 C-11 7.97 -11 10.94 -11 14 C-6.45122326 16.27438837 -4.83802456 16.07511657 0 15 C2.18331689 13.23863645 2.18331689 13.23863645 2.1953125 11.0546875 C2.17210937 10.33539063 2.14890625 9.61609375 2.125 8.875 C2.08375 7.59625 2.0425 6.3175 2 5 C-1.50776784 3.39644899 -4.14354879 2.77963136 -8 3 Z " fill="#C85D6D" transform="translate(344,123)"/>
<path d="M0 0 C1.22589844 0.15275391 1.22589844 0.15275391 2.4765625 0.30859375 C3.41628906 0.43427734 3.41628906 0.43427734 4.375 0.5625 C4.045 1.8825 3.715 3.2025 3.375 4.5625 C1.725 4.5625 0.075 4.5625 -1.625 4.5625 C-1.295 5.2225 -0.965 5.8825 -0.625 6.5625 C1.90233235 7.21805119 1.90233235 7.21805119 4.375 7.5625 C4.375 8.5525 4.375 9.5425 4.375 10.5625 C2.395 10.5625 0.415 10.5625 -1.625 10.5625 C-1.625 12.8725 -1.625 15.1825 -1.625 17.5625 C-2.945 17.2325 -4.265 16.9025 -5.625 16.5625 C-5.955 11.2825 -6.285 6.0025 -6.625 0.5625 C-4.10446405 -0.69776798 -2.7707902 -0.35624445 0 0 Z " fill="#2F3745" transform="translate(233.625,238.4375)"/>
<path d="M0 0 C2.64 0 5.28 0 8 0 C8 0.66 8 1.32 8 2 C5.36 2.99 2.72 3.98 0 5 C0 6.98 0 8.96 0 11 C1.45706726 11.50367757 2.91570096 12.00282556 4.375 12.5 C5.18710937 12.7784375 5.99921875 13.056875 6.8359375 13.34375 C8.94209242 14.09673305 8.94209242 14.09673305 11 14 C11.33 11.69 11.66 9.38 12 7 C12.66 7.33 13.32 7.66 14 8 C12.375 14.75 12.375 14.75 9 17 C6.37109375 17.265625 6.37109375 17.265625 3.4375 17.25 C2.46683594 17.25515625 1.49617188 17.2603125 0.49609375 17.265625 C-2 17 -2 17 -4 15 C-4.1953125 12.6171875 -4.1953125 12.6171875 -4.125 9.875 C-4.10695313 8.96492188 -4.08890625 8.05484375 -4.0703125 7.1171875 C-4.04710937 6.41851562 -4.02390625 5.71984375 -4 5 C-3.34 5 -2.68 5 -2 5 C-1.34 3.35 -0.68 1.7 0 0 Z " fill="#B1C75E" transform="translate(356,92)"/>
<path d="M0 0 C0 6.6 0 13.2 0 20 C-0.99 20 -1.98 20 -3 20 C-3.66 19.01 -4.32 18.02 -5 17 C-5.33 17 -5.66 17 -6 17 C-6 11.72 -6 6.44 -6 1 C-4 0 -4 0 0 0 Z " fill="#0D1C34" transform="translate(334,197)"/>
<path d="M0 0 C3.20013455 2.16225307 3.90076448 3.64275212 4.9375 7.375 C5.01091853 11.63327448 4.54350734 13.58216201 2 17 C-1.6875 18.375 -1.6875 18.375 -5 19 C-5.33 18.01 -5.66 17.02 -6 16 C-4.68 16 -3.36 16 -2 16 C-1.67 14.68 -1.34 13.36 -1 12 C-0.34 12 0.32 12 1 12 C0.67 11.401875 0.34 10.80375 0 10.1875 C-1 8 -1 8 -1 5 C-3.95664519 3.5216774 -6.74229737 3.93967217 -10 4 C-9.67 3.01 -9.34 2.02 -9 1 C-5.68377419 -0.1054086 -3.47482175 -0.35457365 0 0 Z " fill="#9C5B94" transform="translate(289,88)"/>
<path d="M0 0 C2.530472 0.33739627 3.6818563 0.6061078 5.3125 2.625 C6.31159169 6.07640766 5.88006862 8.54258755 5 12 C3.4375 13.9375 3.4375 13.9375 1 15 C-1.72034996 15.22886309 -4.25946073 15.13702696 -7 15 C-6.01 14.67 -5.02 14.34 -4 14 C-4 13.01 -4 12.02 -4 11 C-4.99 10.34 -5.98 9.68 -7 9 C-7 8.34 -7 7.68 -7 7 C-6.34 7 -5.68 7 -5 7 C-5 7.66 -5 8.32 -5 9 C-4.01 8.67 -3.02 8.34 -2 8 C-2.95865509 5.66924071 -2.95865509 5.66924071 -6 4 C-4.00045254 3.95745644 -1.99958364 3.95919217 0 4 C0.33 4.33 0.66 4.66 1 5 C1.33 3.68 1.66 2.36 2 1 C1.34 0.67 0.68 0.34 0 0 Z " fill="#233144" transform="translate(387,207)"/>
<path d="M0 0 C2.5 1.625 2.5 1.625 5 4 C5.91961747 8.59808735 4.52993681 11.56338749 2.15625 15.38671875 C0.6432294 17.49779142 -1.06530368 19.27259257 -3 21 C-3.33 20.34 -3.66 19.68 -4 19 C-5.32 20.32 -6.64 21.64 -8 23 C-8.33 22.34 -8.66 21.68 -9 21 C-8.34 21 -7.68 21 -7 21 C-5.35173889 18.03312999 -4.55728913 15.34373475 -4 12 C-3.34 12 -2.68 12 -2 12 C-1.93941406 11.30132812 -1.87882812 10.60265625 -1.81640625 9.8828125 C-1.73261719 8.97273437 -1.64882813 8.06265625 -1.5625 7.125 C-1.48128906 6.22007812 -1.40007812 5.31515625 -1.31640625 4.3828125 C-1 2 -1 2 0 0 Z " fill="#CD525C" transform="translate(352,129)"/>
<path d="M0 0 C8.25 0 16.5 0 25 0 C25.33 0.66 25.66 1.32 26 2 C25.67 2.99 25.34 3.98 25 5 C23.58566794 5.2236337 22.16832382 5.42826476 20.75 5.625 C19.96109375 5.74101562 19.1721875 5.85703125 18.359375 5.9765625 C15.64073464 6.00356886 14.36668917 5.2596894 12 4 C9.66796188 3.9222654 7.33160941 3.91032272 5 4 C4.67 5.32 4.34 6.64 4 8 C4 7.01 4 6.02 4 5 C3.01 5 2.02 5 1 5 C1 6.98 1 8.96 1 11 C0.67 11 0.34 11 0 11 C0 7.37 0 3.74 0 0 Z " fill="#08162B" transform="translate(293,197)"/>
<path d="M0 0 C-0.14107747 1.45880109 -0.28802415 2.91703551 -0.4375 4.375 C-0.51871094 5.18710938 -0.59992188 5.99921875 -0.68359375 6.8359375 C-1 9 -1 9 -2 11 C-8.75 10.25 -8.75 10.25 -11 8 C-11.4375 5.0625 -11.4375 5.0625 -11 2 C-7.31130117 -1.36322541 -4.68898981 -1.19950902 0 0 Z " fill="#B1CE3C" transform="translate(366,95)"/>
<path d="M0 0 C0.02905924 3.7499837 0.04681874 7.49993837 0.0625 11.25 C0.07087891 12.31347656 0.07925781 13.37695312 0.08789062 14.47265625 C0.09111328 15.49746094 0.09433594 16.52226563 0.09765625 17.578125 C0.10289307 18.52075195 0.10812988 19.46337891 0.11352539 20.43457031 C0.00968082 22.78123437 -0.33293471 24.75644478 -1 27 C-2.32 26.67 -3.64 26.34 -5 26 C-5.07759658 21.73218801 -5.00469048 17.6696136 -4.4375 13.4375 C-3.93135538 9.38834304 -4.23415416 5.99941719 -5 2 C-1.125 0 -1.125 0 0 0 Z " fill="#B1CA54" transform="translate(380,97)"/>
<path d="M0 0 C3.3 0 6.6 0 10 0 C9.67 0.99 9.34 1.98 9 3 C5.7 3.66 2.4 4.32 -1 5 C-1.66 6.98 -2.32 8.96 -3 11 C-2.34 11.33 -1.68 11.66 -1 12 C-0.67 12.66 -0.34 13.32 0 14 C-2.3431213 13.74438677 -4.67843403 13.40729228 -7 13 C-8.36952673 10.26094655 -8.12621361 8.02912668 -8 5 C-7.67 4.34 -7.34 3.68 -7 3 C-4.67843403 2.59270772 -2.3431213 2.25561323 0 2 C0 1.34 0 0.68 0 0 Z " fill="#111D3A" transform="translate(297,207)"/>
<path d="M0 0 C3.96 0 7.92 0 12 0 C12 1.32 12 2.64 12 4 C10.68 4 9.36 4 8 4 C8 7.96 8 11.92 8 16 C6.68 16 5.36 16 4 16 C4 12.04 4 8.08 4 4 C2.68 4 1.36 4 0 4 C0 2.68 0 1.36 0 0 Z " fill="#2C3544" transform="translate(361,239)"/>
<path d="M0 0 C0.02725341 1.7290774 0.04650987 3.45828176 0.0625 5.1875 C0.07410156 6.15042969 0.08570313 7.11335937 0.09765625 8.10546875 C0.00486622 10.85576513 -0.37888315 13.32479591 -1 16 C-1.66 15.01 -2.32 14.02 -3 13 C-3 16.96 -3 20.92 -3 25 C-3.66 25 -4.32 25 -5 25 C-5.06058594 23.94941406 -5.12117188 22.89882812 -5.18359375 21.81640625 C-5.61546473 14.51717848 -6.09263954 7.25888365 -7 0 C-3.86650268 -1.04449911 -3.01031744 -0.93423645 0 0 Z " fill="#0C1F39" transform="translate(278,192)"/>
<path d="M0 0 C0 7.59 0 15.18 0 23 C-2.31 23 -4.62 23 -7 23 C-6.505 21.515 -6.505 21.515 -6 20 C-5.34 19.67 -4.68 19.34 -4 19 C-4 13.06 -4 7.12 -4 1 C-1 0 -1 0 0 0 Z " fill="#0F2039" transform="translate(363,197)"/>
<path d="M0 0 C0.66 0 1.32 0 2 0 C2.33 0.66 2.66 1.32 3 2 C4.98 2 6.96 2 9 2 C9.33 4.31 9.66 6.62 10 9 C8.68 9.99 7.36 10.98 6 12 C6 11.34 6 10.68 6 10 C5.1646875 9.8453125 5.1646875 9.8453125 4.3125 9.6875 C-0.00433047 8.40411797 -3.478632 5.73884178 -7 3 C-5 2 -5 2 -2 2 C-1.34 1.34 -0.68 0.68 0 0 Z " fill="#808181" transform="translate(273,56)"/>
<path d="M0 0 C2.5 1.375 2.5 1.375 5 3 C5 3.66 5 4.32 5 5 C3.68 5.33 2.36 5.66 1 6 C0.34 5.01 -0.32 4.02 -1 3 C-1 3.99 -1 4.98 -1 6 C-0.34 6.33 0.32 6.66 1 7 C2.78284063 12.5466153 3.8229947 18.16641995 3 24 C2.34 24.66 1.68 25.32 1 26 C0.67 25.01 0.34 24.02 0 23 C-0.99 23.99 -1.98 24.98 -3 26 C-3.66 25.34 -4.32 24.68 -5 24 C-4.154375 23.29875 -3.30875 22.5975 -2.4375 21.875 C0.34355154 19.22298896 0.34355154 19.22298896 0 15.8125 C-0.78737233 12.70976172 -0.78737233 12.70976172 -4 11 C-4 10.34 -4 9.68 -4 9 C-3.34 9 -2.68 9 -2 9 C-2.33 6.69 -2.66 4.38 -3 2 C-2.01 1.34 -1.02 0.68 0 0 Z " fill="#D6707A" transform="translate(348,115)"/>
<path d="M0 0 C1.2065625 0.2475 1.2065625 0.2475 2.4375 0.5 C1.4375 3.5 1.4375 3.5 -0.5625 5.5 C-2.22322849 6.18132451 -3.890267 6.84742127 -5.5625 7.5 C-6.5525 8.16 -7.5425 8.82 -8.5625 9.5 C-10.75 10.125 -10.75 10.125 -12.5625 10.5 C-11.5625 7.5 -11.5625 7.5 -9.5625 5.5 C-11.51466435 3.54783565 -13.09449953 2.65173355 -15.5625 1.5 C-10.72657087 -1.72395275 -5.60533751 -0.78671404 0 0 Z " fill="#9A5093" transform="translate(278.5625,113.5)"/>
<path d="M0 0 C2.12936806 3.19405209 2.23418211 3.49187661 1.7578125 7.01171875 C1.66113281 7.76904297 1.56445312 8.52636719 1.46484375 9.30664062 C1.35269531 10.09232422 1.24054688 10.87800781 1.125 11.6875 C1.02058594 12.48478516 0.91617187 13.28207031 0.80859375 14.10351562 C0.54948177 16.07041111 0.27610346 18.03541767 0 20 C-0.99 20.33 -1.98 20.66 -3 21 C-5.24563008 16.36838795 -6.00546905 11.98153539 -4.32421875 6.99609375 C-3.60398351 5.30644236 -2.80792774 3.64951914 -2 2 C-1.34 2 -0.68 2 0 2 C0 1.34 0 0.68 0 0 Z " fill="#F2A02C" transform="translate(315,145)"/>
<path d="M0 0 C1.32 0.33 2.64 0.66 4 1 C4 1.66 4 2.32 4 3 C4.66 3 5.32 3 6 3 C6.19118486 7.77962147 5.98834962 11.60470084 4 16 C3.01 16.33 2.02 16.66 1 17 C0.44124338 14.92118505 -0.09643187 12.83669506 -0.625 10.75 C-0.92664063 9.58984375 -1.22828125 8.4296875 -1.5390625 7.234375 C-2.01655381 3.88384275 -1.87978657 2.73177617 0 0 Z " fill="#A8519C" transform="translate(263,71)"/>
<path d="M0 0 C0.66 0 1.32 0 2 0 C1.98839844 1.02480469 1.97679687 2.04960937 1.96484375 3.10546875 C1.95545978 4.466144 1.94636023 5.82682124 1.9375 7.1875 C1.92912109 7.86103516 1.92074219 8.53457031 1.91210938 9.22851562 C1.89385955 12.96973022 2.19012279 16.35555254 3 20 C3.03824623 22.33301986 3.04574284 24.66711508 3 27 C0 27 0 27 -1.5703125 25.609375 C-2.33988281 24.68898437 -2.33988281 24.68898437 -3.125 23.75 C-3.64320313 23.14671875 -4.16140625 22.5434375 -4.6953125 21.921875 C-6.05072083 19.92528549 -6.57228909 18.35762598 -7 16 C-4.525 16.99 -4.525 16.99 -2 18 C0.11925604 15.88074396 -0.58168983 11.3803907 -0.4375 8.4375 C-0.37272461 7.22803711 -0.37272461 7.22803711 -0.30664062 5.99414062 C-0.20024738 3.99631195 -0.09959112 1.9981793 0 0 Z " fill="#CBA773" transform="translate(317,152)"/>
<path d="M0 0 C1.87109375 0.5390625 1.87109375 0.5390625 3.80859375 2.2890625 C4.98021895 4.77015116 5.654746 6.79865766 5.87109375 9.5390625 C5.21109375 10.1990625 4.55109375 10.8590625 3.87109375 11.5390625 C3.21109375 9.8890625 2.55109375 8.2390625 1.87109375 6.5390625 C0.22109375 8.1890625 -1.42890625 9.8390625 -3.12890625 11.5390625 C-3.45890625 9.8890625 -3.78890625 8.2390625 -4.12890625 6.5390625 C-5.46223958 9.5390625 -5.46223958 9.5390625 -4.12890625 12.5390625 C-5.11890625 12.5390625 -6.10890625 12.5390625 -7.12890625 12.5390625 C-7.37890625 9.2265625 -7.37890625 9.2265625 -7.12890625 5.5390625 C-5.12890625 3.6015625 -5.12890625 3.6015625 -3.12890625 2.5390625 C-6.09890625 2.0440625 -6.09890625 2.0440625 -9.12890625 1.5390625 C-5.49802354 -0.88152598 -4.12360725 -0.65069766 0 0 Z " fill="#202843" transform="translate(264.12890625,205.4609375)"/>
<path d="M0 0 C2.97 0.495 2.97 0.495 6 1 C6.33 1.99 6.66 2.98 7 4 C7.66 4.33 8.32 4.66 9 5 C9 5.66 9 6.32 9 7 C12.3 7.33 15.6 7.66 19 8 C18.34 6.02 17.68 4.04 17 2 C23.76923077 5.44615385 23.76923077 5.44615385 24.9375 8.25 C24.958125 8.8275 24.97875 9.405 25 10 C20.12643539 11.62452154 15.790102 11.63399446 11 9.9375 C6.98977523 7.34756317 3.39371274 4.3592588 0 1 C0 0.67 0 0.34 0 0 Z " fill="#47A2BD" transform="translate(356,56)"/>
<path d="M0 0 C6.1952254 4.24815456 10.38449436 10.65679253 12 18 C12.14592342 21.34114315 12.11886872 24.6584682 12 28 C11.67 28 11.34 28 11 28 C10.89042969 27.20335938 10.78085937 26.40671875 10.66796875 25.5859375 C9.81008432 19.8527586 9.03978343 14.97419107 6 10 C5.01 10 4.02 10 3 10 C2.67 13.63 2.34 17.26 2 21 C1.67 21 1.34 21 1 21 C0.63707854 17.68839717 0.28613268 14.37563512 -0.0625 11.0625 C-0.16626953 10.11697266 -0.27003906 9.17144531 -0.37695312 8.19726562 C-0.47041016 7.29814453 -0.56386719 6.39902344 -0.66015625 5.47265625 C-0.74918213 4.64000244 -0.83820801 3.80734863 -0.92993164 2.94946289 C-0.9530542 2.30614014 -0.97617676 1.66281738 -1 1 C-0.67 0.67 -0.34 0.34 0 0 Z " fill="#4DA8BF" transform="translate(325,17)"/>
<path d="M0 0 C0.66 0 1.32 0 2 0 C3.0828125 1.2375 3.0828125 1.2375 4.1875 2.5 C6.85143897 5.37232835 6.85143897 5.37232835 10.8125 5.3125 C11.864375 5.209375 12.91625 5.10625 14 5 C14 5.66 14 6.32 14 7 C16.97 7 19.94 7 23 7 C20.2981424 3.8509288 20.2981424 3.8509288 17 3 C17 2.34 17 1.68 17 1 C22.54050113 1.56825653 27.03715966 3.62886517 32 6 C28.60047016 9.39952984 24.31351333 9.15402668 19.6875 9.1875 C12.44091062 9.09972166 6.3648267 8.3648267 1 3 C0.67 2.01 0.34 1.02 0 0 Z " fill="#C16777" transform="translate(360,135)"/>
<path d="M0 0 C-1.98 0.33 -3.96 0.66 -6 1 C-6 1.66 -6 2.32 -6 3 C-6.639375 3.28875 -7.27875 3.5775 -7.9375 3.875 C-10.15206079 4.82823451 -10.15206079 4.82823451 -11 7 C-8.03 7 -5.06 7 -2 7 C-2 7.33 -2 7.66 -2 8 C-2.94875 8.12375 -3.8975 8.2475 -4.875 8.375 C-8.08667191 8.71687177 -8.08667191 8.71687177 -10 11 C-10 10.34 -10 9.68 -10 9 C-12.98241547 8.22678118 -15.97580475 7.58803797 -19 7 C-18.9375 5.1875 -18.9375 5.1875 -18 3 C-12.50284558 0.03153662 -6.16941636 -2.22098989 0 0 Z " fill="#B0C954" transform="translate(380,74)"/>
<path d="M0 0 C0.99 0.33 1.98 0.66 3 1 C3 6.28 3 11.56 3 17 C0 18 0 18 -3 17 C-2.79375 16.4225 -2.5875 15.845 -2.375 15.25 C-1.91338739 12.48032433 -2.57055055 11.35438733 -4 9 C-3.34 8.67 -2.68 8.34 -2 8 C-1.62599214 5.67284 -1.29235267 3.33882138 -1 1 C-0.67 0.67 -0.34 0.34 0 0 Z " fill="#2A394B" transform="translate(431,238)"/>
<path d="M0 0 C0.66 1.32 1.32 2.64 2 4 C2.515625 3.835 3.03125 3.67 3.5625 3.5 C6.73363876 2.84951 9.77218334 2.9379266 13 3 C13.33 4.98 13.66 6.96 14 9 C12.68 8.67 11.36 8.34 10 8 C10.66 8 11.32 8 12 8 C12 7.01 12 6.02 12 5 C8.87802522 6.3089572 8.87802522 6.3089572 7 9 C6.34 9 5.68 9 5 9 C5.33 9.99 5.66 10.98 6 12 C3.36 12 0.72 12 -2 12 C-2.33 14.31 -2.66 16.62 -3 19 C-3.33 19 -3.66 19 -4 19 C-4.125 13.25 -4.125 13.25 -3 11 C-2.01 11 -1.02 11 0 11 C0 7.37 0 3.74 0 0 Z " fill="#304059" transform="translate(292,198)"/>
<path d="M0 0 C0.625 1.8125 0.625 1.8125 1 4 C0.01 5.485 0.01 5.485 -1 7 C0.32 6.67 1.64 6.34 3 6 C3 6.33 3 6.66 3 7 C5.97 7.33 8.94 7.66 12 8 C11.67 8.66 11.34 9.32 11 10 C9.02 10 7.04 10 5 10 C4.01 12.64 3.02 15.28 2 18 C-2.28405745 15.28967794 -2.28405745 15.28967794 -4 13 C-4.39942116 8.7764911 -3.32699607 4.98098821 -2 1 C-1.34 0.67 -0.68 0.34 0 0 Z " fill="#32AFD5" transform="translate(334,49)"/>
<path d="M0 0 C0.93423645 3.01031744 1.04449911 3.86650268 0 7 C-0.23164058 11.24674388 -0.33214424 14.35602463 2 18 C2.66 18 3.32 18 4 18 C4 14.04 4 10.08 4 6 C4.66 5.67 5.32 5.34 6 5 C6 10.61 6 16.22 6 22 C4.02 22.99 4.02 22.99 2 24 C-2.03179538 17.68936375 -2.51388123 12.39749956 -2 5 C-1 1.875 -1 1.875 0 0 Z " fill="#E2A142" transform="translate(311,147)"/>
<path d="M0 0 C0.928125 0.103125 1.85625 0.20625 2.8125 0.3125 C-0.9375 2.3125 -0.9375 2.3125 -3.1875 2.3125 C-3.8475 5.2825 -4.5075 8.2525 -5.1875 11.3125 C-2.5475 11.6425 0.0925 11.9725 2.8125 12.3125 C2.8125 10.0025 2.8125 7.6925 2.8125 5.3125 C3.8025 4.9825 4.7925 4.6525 5.8125 4.3125 C7.38682497 7.46114995 6.53145552 9.95737425 5.8125 13.3125 C2.8125 15.3125 2.8125 15.3125 -0.75 15 C-4.1875 14.3125 -4.1875 14.3125 -6.1875 13.3125 C-6.39903631 9.15228592 -6.52875965 6.22252574 -5.0625 2.3125 C-3.1875 0.3125 -3.1875 0.3125 0 0 Z " fill="#19A8DE" transform="translate(342.1875,57.6875)"/>
<path d="M0 0 C0.33 0.66 0.66 1.32 1 2 C2.98 1.67 4.96 1.34 7 1 C6.34 2.32 5.68 3.64 5 5 C4.34 5 3.68 5 3 5 C3 5.66 3 6.32 3 7 C1.02 7.66 -0.96 8.32 -3 9 C-3 9.66 -3 10.32 -3 11 C-4.65 11 -6.3 11 -8 11 C-7.8125 8.625 -7.8125 8.625 -7 6 C-5.35448038 5.28272222 -3.68577711 4.61674772 -2 4 C-0.65589738 1.98264795 -0.65589738 1.98264795 0 0 Z " fill="#D8555D" transform="translate(333,152)"/>
<path d="M0 0 C0.99 0 1.98 0 3 0 C4.88485726 7.37670754 5.55637396 12.13251926 2 19 C1.01 19.99 0.02 20.98 -1 22 C-0.67 14.74 -0.34 7.48 0 0 Z " fill="#1BADEC" transform="translate(329,30)"/>
<path d="M0 0 C0.33 0 0.66 0 1 0 C1 7.26 1 14.52 1 22 C-6.26 22 -13.52 22 -21 22 C-21 21.67 -21 21.34 -21 21 C-17.7 21 -14.4 21 -11 21 C-11 20.34 -11 19.68 -11 19 C-11.66 19.33 -12.32 19.66 -13 20 C-14.99960012 20.039992 -17.00047242 20.04346799 -19 20 C-15.93753253 18.21590198 -13.77920727 17.77119979 -10.25 17.875 C-9.45078125 17.89304688 -8.6515625 17.91109375 -7.828125 17.9296875 C-7.22484375 17.95289063 -6.6215625 17.97609375 -6 18 C-6 18.66 -6 19.32 -6 20 C-4.02 19.67 -2.04 19.34 0 19 C0 12.73 0 6.46 0 0 Z " fill="#07132A" transform="translate(363,199)"/>
<path d="M0 0 C2.22696514 2.22696514 2.91729646 3.79350126 3.1328125 6.9375 C3.13023437 7.618125 3.12765625 8.29875 3.125 9 C3.12757813 9.680625 3.13015625 10.36125 3.1328125 11.0625 C3 13 3 13 2 16 C1.01 16 0.02 16 -1 16 C-1 15.01 -1 14.02 -1 13 C-0.34 13 0.32 13 1 13 C1 12.34 1 11.68 1 11 C-0.32 10.67 -1.64 10.34 -3 10 C-3.75 7.8125 -3.75 7.8125 -4 5 C-2.0625 2.1875 -2.0625 2.1875 0 0 Z " fill="#1C273C" transform="translate(414,201)"/>
<path d="M0 0 C1.65 0 3.3 0 5 0 C5 5.28 5 10.56 5 16 C3.68 16.33 2.36 16.66 1 17 C0.67 11.39 0.34 5.78 0 0 Z " fill="#202838" transform="translate(381,239)"/>
<path d="M0 0 C3 3 3 3 3.29296875 5.26171875 C3.25816406 6.06222656 3.22335937 6.86273438 3.1875 7.6875 C3.16042969 8.49574219 3.13335937 9.30398437 3.10546875 10.13671875 C3.07066406 10.75160156 3.03585937 11.36648437 3 12 C3.99 12 4.98 12 6 12 C6.33 11.34 6.66 10.68 7 10 C7.99 10.33 8.98 10.66 10 11 C9.67 12.32 9.34 13.64 9 15 C6.03 15 3.06 15 0 15 C0 10.05 0 5.1 0 0 Z " fill="#202636" transform="translate(318,240)"/>
<path d="M0 0 C0 1.98 0 3.96 0 6 C-0.639375 6.268125 -1.27875 6.53625 -1.9375 6.8125 C-4.33131686 7.88667752 -4.33131686 7.88667752 -5 11 C-5.39410543 16.40749307 -5.40162876 21.04664069 -3 26 C-3 26.99 -3 27.98 -3 29 C-3.99 28.67 -4.98 28.34 -6 28 C-8.57600293 21.62778222 -9.37469853 14.69993209 -6.94921875 8.171875 C-2.99169643 0 -2.99169643 0 0 0 Z " fill="#E2B059" transform="translate(315,141)"/>
<path d="M0 0 C3.6159107 2.63863753 6.17496818 4.86966482 8 9 C8.63878327 15.17490494 8.63878327 15.17490494 6.5 17.9375 C6.005 18.288125 5.51 18.63875 5 19 C4.875 12.25 4.875 12.25 6 10 C5.34 10 4.68 10 4 10 C3.67 9.34 3.34 8.68 3 8 C2.01 8 1.02 8 0 8 C-0.33 8 -0.66 8 -1 8 C-1.04241723 5.66705225 -1.04092937 3.33297433 -1 1 C-0.67 0.67 -0.34 0.34 0 0 Z " fill="#8E618B" transform="translate(263,64)"/>
<path d="M0 0 C2.17578125 1.16015625 2.17578125 1.16015625 4 3 C4.390625 5.69921875 4.390625 5.69921875 4.25 8.6875 C4.21390625 9.68136719 4.1778125 10.67523438 4.140625 11.69921875 C4.07101562 12.83810547 4.07101562 12.83810547 4 14 C2.35 14.33 0.7 14.66 -1 15 C-0.67 13.68 -0.34 12.36 0 11 C0.66 11 1.32 11 2 11 C1.34 8.36 0.68 5.72 0 3 C-5.3086849 3.58174845 -5.3086849 3.58174845 -10 6 C-9.67 4.35 -9.34 2.7 -9 1 C-5.70952793 -0.09682402 -3.44927034 -0.28157309 0 0 Z " fill="#E4A03F" transform="translate(305,123)"/>
<path d="M0 0 C1.32 0 2.64 0 4 0 C6 3 6 3 5.75 5 C5 7 5 7 3 10 C2.61500109 11.65549531 2.27206865 13.3222433 2 15 C-0.31082041 10.54341778 -2 7.09639729 -2 2 C-1.34 2 -0.68 2 0 2 C0 1.34 0 0.68 0 0 Z " fill="#29354A" transform="translate(408,196)"/>
<path d="M0 0 C1.29585916 0.42492126 2.5866044 0.86545882 3.875 1.3125 C4.59429687 1.55613281 5.31359375 1.79976562 6.0546875 2.05078125 C8 3 8 3 10 6 C9.34 6 8.68 6 8 6 C7.67 6.66 7.34 7.32 7 8 C6.34 7.67 5.68 7.34 5 7 C5.33 8.98 5.66 10.96 6 13 C4 12 4 12 3 9 C2.505 8.525625 2.01 8.05125 1.5 7.5625 C-0.26696767 5.72190868 -0.67618716 4.50954948 -1 2 C-0.67 1.34 -0.34 0.68 0 0 Z " fill="#28344A" transform="translate(266,185)"/>
<path d="M0 0 C0.33 0.99 0.66 1.98 1 3 C1.33 2.34 1.66 1.68 2 1 C2.99 1.33 3.98 1.66 5 2 C5.66 1.34 6.32 0.68 7 0 C8.43088528 2.86177057 7.59991697 4.93375773 7 8 C6.01 8 5.02 8 4 8 C4.33 8.99 4.66 9.98 5 11 C4.0625 13.1875 4.0625 13.1875 3 15 C0.31780178 9.63560356 -0.3152595 5.98993047 0 0 Z " fill="#25334C" transform="translate(243,202)"/>
<path d="M0 0 C0.66 0.66 1.32 1.32 2 2 C1.62746094 2.62648437 1.25492187 3.25296875 0.87109375 3.8984375 C0.39800781 4.71570312 -0.07507813 5.53296875 -0.5625 6.375 C-1.03816406 7.18710937 -1.51382812 7.99921875 -2.00390625 8.8359375 C-2.33261719 9.55007812 -2.66132813 10.26421875 -3 11 C-2.67 11.66 -2.34 12.32 -2 13 C-1.01 12.67 -0.02 12.34 1 12 C0.67 13.32 0.34 14.64 0 16 C-1.875 16.625 -1.875 16.625 -4 17 C-6 15 -6 15 -6.375 12.9375 C-5.82350445 8.61745156 -4.14153073 4.78284991 -2 1 C-1.34 0.67 -0.68 0.34 0 0 Z " fill="#4EADCA" transform="translate(330,52)"/>
<path d="M0 0 C-1.010625 0.70125 -2.02125 1.4025 -3.0625 2.125 C-4.75432167 3.42155138 -4.75432167 3.42155138 -6 5 C-6.02827577 8.25789019 -6.02827577 8.25789019 -5 11 C-6.32 10.34 -7.64 9.68 -9 9 C-9.33 9.66 -9.66 10.32 -10 11 C-11.5625 9.25 -11.5625 9.25 -13 7 C-12.6875 4.75 -12.6875 4.75 -12 3 C-11.34 3 -10.68 3 -10 3 C-10 2.34 -10 1.68 -10 1 C-9 1 -8 1 -7 1 C-6.38125 0.649375 -5.7625 0.29875 -5.125 -0.0625 C-3 -1 -3 -1 0 0 Z " fill="#828383" transform="translate(309,58)"/>
<path d="M0 0 C1.32 0 2.64 0 4 0 C4.05449838 1.72880982 4.09301688 3.45812712 4.125 5.1875 C4.14820313 6.15042969 4.17140625 7.11335937 4.1953125 8.10546875 C3.9913544 11.12812778 3.26874632 13.26769985 2 16 C1.01 15.67 0.02 15.34 -1 15 C-0.34 15 0.32 15 1 15 C1 12.36 1 9.72 1 7 C0.34 7 -0.32 7 -1 7 C-1.04254356 5.00045254 -1.04080783 2.99958364 -1 1 C-0.67 0.67 -0.34 0.34 0 0 Z " fill="#273244" transform="translate(280,239)"/>
<path d="M0 0 C-4.75 4.875 -4.75 4.875 -7 6 C-7 5.01 -7 4.02 -7 3 C-7.66 3 -8.32 3 -9 3 C-9 3.66 -9 4.32 -9 5 C-9.66 5 -10.32 5 -11 5 C-11.25069913 7.37429296 -11.25069913 7.37429296 -11 10 C-9.54166642 11.62514468 -9.54166642 11.62514468 -8 13 C-8 13.99 -8 14.98 -8 16 C-9.9375 15.4375 -9.9375 15.4375 -12 14 C-13.10197645 10.10634987 -13.40880406 7.91980913 -11.75 4.1875 C-8.1940735 -0.25740812 -5.41975654 -0.20451911 0 0 Z " fill="#7A7B7C" transform="translate(308,56)"/>
<path d="M0 0 C4.875 2.75 4.875 2.75 6 5 C6.5811138 12.08958838 6.5811138 12.08958838 4.125 15.9375 C2 18 2 18 0 19 C-1.54613014 18.91348369 -3.08909387 18.75997364 -4.625 18.5625 C-5.44226563 18.46066406 -6.25953125 18.35882813 -7.1015625 18.25390625 C-7.72804688 18.17011719 -8.35453125 18.08632812 -9 18 C-9 17.01 -9 16.02 -9 15 C-8.34 15.33 -7.68 15.66 -7 16 C-2.38176176 16.4226509 -2.38176176 16.4226509 1.875 14.9375 C3.6274029 11.91947278 3.93913078 9.46954545 4 6 C2.16641665 3.66545339 2.16641665 3.66545339 0 2 C0 1.34 0 0.68 0 0 Z " fill="#52A1B6" transform="translate(346,57)"/>
<path d="M0 0 C1.32 0 2.64 0 4 0 C3.49287967 3.71888239 2.88391785 6.73454239 1 10 C-0.65 9.67 -2.3 9.34 -4 9 C-4 9.66 -4 10.32 -4 11 C-4.99 10.67 -5.98 10.34 -7 10 C-6.67 9.34 -6.34 8.68 -6 8 C-5.34 8 -4.68 8 -4 8 C-4.33 7.01 -4.66 6.02 -5 5 C-3.02 4.34 -1.04 3.68 1 3 C0.34 2.34 -0.32 1.68 -1 1 C-0.67 0.67 -0.34 0.34 0 0 Z " fill="#798788" transform="translate(318,31)"/>
<path d="M0 0 C1.5 1.125 1.5 1.125 3 3 C3.375 6.0625 3.375 6.0625 3 9 C-1.1795645 11.78637633 -3.14668677 10.79562512 -8 10 C-6.68 9.67 -5.36 9.34 -4 9 C-3.566875 7.329375 -3.566875 7.329375 -3.125 5.625 C-2 2 -2 2 0 0 Z " fill="#111E35" transform="translate(265,210)"/>
<path d="M0 0 C2.625 0.375 2.625 0.375 5 1 C5.33 2.65 5.66 4.3 6 6 C3.525 7.485 3.525 7.485 1 9 C0.01 8.34 -0.98 7.68 -2 7 C-2.3125 4.5 -2.3125 4.5 -2 2 C-1.34 1.34 -0.68 0.68 0 0 Z " fill="#1D2636" transform="translate(394,186)"/>
<path d="M0 0 C0.99 0 1.98 0 3 0 C3 0.66 3 1.32 3 2 C3.9590625 2.1546875 3.9590625 2.1546875 4.9375 2.3125 C5.618125 2.539375 6.29875 2.76625 7 3 C7.33 3.99 7.66 4.98 8 6 C8.66 6.33 9.32 6.66 10 7 C9 8 9 8 5.5625 8.25 C4.386875 8.1675 3.21125 8.085 2 8 C-0.1519437 4.77208445 -0.20086443 3.71599191 0 0 Z " fill="#EF4E54" transform="translate(363,131)"/>
<path d="M0 0 C0.66 0 1.32 0 2 0 C2.33 2.97 2.66 5.94 3 9 C4.6396875 9.2165625 4.6396875 9.2165625 6.3125 9.4375 C10 10 10 10 13 11 C13 11.66 13 12.32 13 13 C9.8125 13.75 9.8125 13.75 6 14 C3.19810554 12.23358828 1.48475089 10.96950178 0 8 C-0.13415472 5.3276379 -0.04318541 2.67749512 0 0 Z " fill="#C06774" transform="translate(331,128)"/>
<path d="M0 0 C0.33 0 0.66 0 1 0 C1.66 3.63 2.32 7.26 3 11 C3.99 11 4.98 11 6 11 C6.66 9.68 7.32 8.36 8 7 C9.26026798 9.52053595 8.91874445 10.8542098 8.5625 13.625 C8.46066406 14.44226563 8.35882813 15.25953125 8.25390625 16.1015625 C8.17011719 16.72804688 8.08632813 17.35453125 8 18 C7.34 16.68 6.68 15.36 6 14 C4.35 14.66 2.7 15.32 1 16 C-0.14077657 12.57767028 -0.09815117 9.91326783 -0.0625 6.3125 C-0.05347656 5.13300781 -0.04445313 3.95351562 -0.03515625 2.73828125 C-0.02355469 1.83464844 -0.01195312 0.93101563 0 0 Z " fill="#9B5F91" transform="translate(261,75)"/>
<path d="M0 0 C1.22589844 0.15275391 1.22589844 0.15275391 2.4765625 0.30859375 C3.41628906 0.43427734 3.41628906 0.43427734 4.375 0.5625 C4.045 1.8825 3.715 3.2025 3.375 4.5625 C1.725 4.5625 0.075 4.5625 -1.625 4.5625 C-1.955 5.5525 -2.285 6.5425 -2.625 7.5625 C-2.625 5.9125 -2.625 4.2625 -2.625 2.5625 C-3.285 2.5625 -3.945 2.5625 -4.625 2.5625 C-4.295 4.2125 -3.965 5.8625 -3.625 7.5625 C-4.285 7.5625 -4.945 7.5625 -5.625 7.5625 C-5.955 5.2525 -6.285 2.9425 -6.625 0.5625 C-4.10446405 -0.69776798 -2.7707902 -0.35624445 0 0 Z " fill="#343C4F" transform="translate(233.625,238.4375)"/>
<path d="M0 0 C-0.66 1.32 -1.32 2.64 -2 4 C-4.35448675 4.05454409 -6.70767875 4.0939279 -9.0625 4.125 C-10.37347656 4.14820313 -11.68445313 4.17140625 -13.03515625 4.1953125 C-17.11824299 3.99417522 -20.14999053 3.27165462 -24 2 C-19.88577355 0.7608918 -16.0124754 0.96773351 -11.75390625 1.0625 C-7.73655836 0.97132615 -4.04570887 0 0 0 Z " fill="#D4A765" transform="translate(310,146)"/>
<path d="M0 0 C2.33470194 1.45473803 4.01170253 3.06019759 6 5 C5.67 5.99 5.34 6.98 5 8 C4.360625 7.175 3.72125 6.35 3.0625 5.5 C-1.02384465 2.16420845 -3.92872936 2.5028166 -9 3 C-9 3.66 -9 4.32 -9 5 C-9.66 5 -10.32 5 -11 5 C-11.33 7.31 -11.66 9.62 -12 12 C-12.33 12 -12.66 12 -13 12 C-13.35671933 8.16526716 -13.29771416 6.44657125 -11.125 3.1875 C-7.57528033 -0.46662319 -5.03391038 -0.50339104 0 0 Z " fill="#DEB778" transform="translate(305,121)"/>
<path d="M0 0 C11.35410608 -0.3110714 19.39022755 3.33150938 29 9 C29.66 9.66 30.32 10.32 31 11 C25.16474883 10.2705936 20.24235517 7.32502806 15.25 4.375 C10.348733 2.30138704 5.24907589 1.72196028 0 1 C0 0.67 0 0.34 0 0 Z " fill="#39A3BC" transform="translate(342,47)"/>
<path d="M0 0 C0.99 0 1.98 0 3 0 C3 0.66 3 1.32 3 2 C2.01 2 1.02 2 0 2 C0.01571045 2.83192871 0.01571045 2.83192871 0.03173828 3.68066406 C0.07342004 6.20372959 0.09936438 8.72672253 0.125 11.25 C0.14175781 12.12269531 0.15851563 12.99539062 0.17578125 13.89453125 C0.18222656 14.73886719 0.18867188 15.58320312 0.1953125 16.453125 C0.20578613 17.22817383 0.21625977 18.00322266 0.22705078 18.80175781 C-0.02673444 21.25883539 -0.77555848 22.87311542 -2 25 C-2.33 25 -2.66 25 -3 25 C-3.28436965 16.89546495 -2.39445571 8.97995095 -1 1 C-0.67 0.67 -0.34 0.34 0 0 Z " fill="#1EA6D1" transform="translate(329,28)"/>
<path d="M0 0 C4 0 4 0 6 1 C6 2.32 6 3.64 6 5 C5.01 5 4.02 5 3 5 C3.66 7.64 4.32 10.28 5 13 C4.01 12.34 3.02 11.68 2 11 C2 10.34 2 9.68 2 9 C1.34 9 0.68 9 0 9 C-0.87890625 2.84765625 -0.87890625 2.84765625 -1 1 C-0.67 0.67 -0.34 0.34 0 0 Z " fill="#CF5253" transform="translate(360,126)"/>
<path d="M0 0 C0.33 0.66 0.66 1.32 1 2 C3.02463255 2.65213292 3.02463255 2.65213292 5 3 C5 3.66 5 4.32 5 5 C4.34 5 3.68 5 3 5 C3 5.99 3 6.98 3 8 C3.66 8 4.32 8 5 8 C4.67 8.99 4.34 9.98 4 11 C1.69 10.34 -0.62 9.68 -3 9 C-2.01 6.03 -1.02 3.06 0 0 Z " fill="#1D2C46" transform="translate(410,209)"/>
<path d="M0 0 C0.66 0 1.32 0 2 0 C2 0.66 2 1.32 2 2 C3.32 2 4.64 2 6 2 C6 2.66 6 3.32 6 4 C6.66 4 7.32 4 8 4 C8 4.66 8 5.32 8 6 C8.66 6.33 9.32 6.66 10 7 C6.04 7 2.08 7 -2 7 C-2.33 6.34 -2.66 5.68 -3 5 C-2.01 4.67 -1.02 4.34 0 4 C0 2.68 0 1.36 0 0 Z " fill="#29324B" transform="translate(295,215)"/>
<path d="M0 0 C0.99 0.33 1.98 0.66 3 1 C0.93643008 5.64303232 -1.69691502 7.23218132 -6.0625 9.3984375 C-8 10 -8 10 -11 9 C-10.01 8.34 -9.02 7.68 -8 7 C-8.33 6.34 -8.66 5.68 -9 5 C-7.02 4.67 -5.04 4.34 -3 4 C-3 3.34 -3 2.68 -3 2 C-2.01 1.34 -1.02 0.68 0 0 Z " fill="#ABCE45" transform="translate(383,70)"/>
<path d="M0 0 C2.50828536 1.90354807 3.00135005 3.00579726 3.73046875 6.13671875 C3.88128906 7.30847656 4.03210938 8.48023438 4.1875 9.6875 C4.34605469 10.86699219 4.50460937 12.04648437 4.66796875 13.26171875 C4.77753906 14.16535156 4.88710938 15.06898437 5 16 C3.35 16.66 1.7 17.32 0 18 C0.12568359 16.95199219 0.12568359 16.95199219 0.25390625 15.8828125 C0.35574219 14.97273438 0.45757812 14.06265625 0.5625 13.125 C0.66691406 12.22007813 0.77132813 11.31515625 0.87890625 10.3828125 C1.19674852 7.98346943 1.19674852 7.98346943 0 6 C-0.039992 4.00039988 -0.04346799 1.99952758 0 0 Z " fill="#20A6D6" transform="translate(332,30)"/>
<path d="M0 0 C2.5 1 2.5 1 4 2 C0.78548731 3.60725635 -2.43612536 3.05748185 -6 3 C-6 3.66 -6 4.32 -6 5 C-4.68 5.66 -3.36 6.32 -2 7 C-2 7.66 -2 8.32 -2 9 C-4.9719385 7.87548273 -7.33440687 6.77706209 -10 5 C-10 3.68 -10 2.36 -10 1 C-6.83013832 -0.58493084 -3.45967739 -0.2940042 0 0 Z " fill="#D9B076" transform="translate(274,130)"/>
<path d="M0 0 C0.66 0.33 1.32 0.66 2 1 C0.375 7.75 0.375 7.75 -3 10 C-5.69921875 10.1953125 -5.69921875 10.1953125 -8.6875 10.125 C-10.17830078 10.09792969 -10.17830078 10.09792969 -11.69921875 10.0703125 C-12.45847656 10.04710938 -13.21773438 10.02390625 -14 10 C-14.66 8.68 -15.32 7.36 -16 6 C-15.505 6.144375 -15.01 6.28875 -14.5 6.4375 C-7.73026884 7.98896822 -7.73026884 7.98896822 -1 7 C-0.67 4.69 -0.34 2.38 0 0 Z " fill="#B8C783" transform="translate(368,99)"/>
<path d="M0 0 C0.721875 0.309375 1.44375 0.61875 2.1875 0.9375 C7.03837818 2.838011 7.03837818 2.838011 12.0625 2.375 C14 2 14 2 16.25 3.4375 C16.8275 3.953125 17.405 4.46875 18 5 C14.52674819 6.1577506 11.63932552 6.06866652 8 6 C7.67 6.99 7.34 7.98 7 9 C6.67 8.34 6.34 7.68 6 7 C6.33 6.34 6.66 5.68 7 5 C5.68 5 4.36 5 3 5 C3 4.34 3 3.68 3 3 C2.34 3 1.68 3 1 3 C0.67 2.01 0.34 1.02 0 0 Z " fill="#AE5DAA" transform="translate(275,103)"/>
<path d="M0 0 C0.66 0.99 1.32 1.98 2 3 C5.05429073 4.21284876 5.05429073 4.21284876 8 5 C8 5.99 8 6.98 8 8 C3.428721 7.45144652 -0.67435795 6.58255197 -5 5 C-4.67 4.01 -4.34 3.02 -4 2 C-2.68 2 -1.36 2 0 2 C0 1.34 0 0.68 0 0 Z " fill="#C2D76D" transform="translate(365,79)"/>
<path d="M0 0 C0.66 0.33 1.32 0.66 2 1 C0.125 6.75 0.125 6.75 -1 9 C-3.3140622 9.73075648 -5.64828869 10.40138258 -8 11 C-8.33 10.01 -8.66 9.02 -9 8 C-7.68 8 -6.36 8 -5 8 C-4.67 6.68 -4.34 5.36 -4 4 C-3.34 4 -2.68 4 -2 4 C-1.34 2.68 -0.68 1.36 0 0 Z " fill="#8D5C8B" transform="translate(292,96)"/>
<path d="M0 0 C0.33 0 0.66 0 1 0 C1 1.98 1 3.96 1 6 C0.34 6 -0.32 6 -1 6 C-1.33 6.99 -1.66 7.98 -2 9 C-5.3125 9.3125 -5.3125 9.3125 -9 9 C-11 6.6875 -11 6.6875 -12 4 C-11.67 3.01 -11.34 2.02 -11 1 C-10.443125 1.804375 -9.88625 2.60875 -9.3125 3.4375 C-6.78135513 6.24228216 -5.67420866 6.69381595 -2 7 C-1.855625 6.21625 -1.71125 5.4325 -1.5625 4.625 C-1 2 -1 2 0 0 Z " fill="#F09E2A" transform="translate(306,128)"/>
<path d="M0 0 C2.97 0.99 5.94 1.98 9 3 C8.67 3.99 8.34 4.98 8 6 C7.01 6 6.02 6 5 6 C4.67 6.99 4.34 7.98 4 9 C3.34 9 2.68 9 2 9 C1.87625 7.865625 1.7525 6.73125 1.625 5.5625 C1.41875 4.386875 1.2125 3.21125 1 2 C0.34 1.67 -0.32 1.34 -1 1 C-0.67 0.67 -0.34 0.34 0 0 Z " fill="#AB4D9F" transform="translate(262,115)"/>
<path d="M0 0 C5.625 -0.25 5.625 -0.25 9 2 C9.1875 5.125 9.1875 5.125 9 8 C8.34 8 7.68 8 7 8 C7 7.01 7 6.02 7 5 C4.36 4.34 1.72 3.68 -1 3 C-0.67 2.01 -0.34 1.02 0 0 Z " fill="#1E2B3A" transform="translate(400,239)"/>
<path d="M0 0 C3.3 0 6.6 0 10 0 C9.67 0.99 9.34 1.98 9 3 C7.37681021 3.36237263 5.7513642 3.71465157 4.125 4.0625 C3.22007812 4.25972656 2.31515625 4.45695313 1.3828125 4.66015625 C-1 5 -1 5 -3 4 C-2.67 3.34 -2.34 2.68 -2 2 C-1.34 2 -0.68 2 0 2 C0 1.34 0 0.68 0 0 Z " fill="#08192E" transform="translate(297,207)"/>
<path d="M0 0 C0.99 0 1.98 0 3 0 C3 0.66 3 1.32 3 2 C5.97 2 8.94 2 12 2 C12.33 2.66 12.66 3.32 13 4 C10.64653604 5.17673198 9.1193967 5.16623866 6.5 5.1875 C5.7059375 5.20167969 4.911875 5.21585938 4.09375 5.23046875 C2 5 2 5 0 3 C0 2.01 0 1.02 0 0 Z " fill="#1D2534" transform="translate(247,250)"/>
<path d="M0 0 C1.33333333 0.66666667 2.66666667 1.33333333 4 2 C5.32860925 2.35169068 6.66158328 2.68770276 8 3 C6.68 4.32 5.36 5.64 4 7 C3.01 6.01 2.02 5.02 1 4 C0.34 6.97 -0.32 9.94 -1 13 C-1.33 13 -1.66 13 -2 13 C-3.19876651 7.55106131 -2.91360308 4.77830905 0 0 Z " fill="#314056" transform="translate(376,202)"/>
<path d="M0 0 C4.04420651 1.77945087 7.46078487 4.39529673 11 7 C10.67 7.66 10.34 8.32 10 9 C3.57142857 7.92857143 3.57142857 7.92857143 1 6 C0.25 2.875 0.25 2.875 0 0 Z " fill="#C7636E" transform="translate(365,127)"/>
<path d="M0 0 C0.99 0.33 1.98 0.66 3 1 C2.67 2.32 2.34 3.64 2 5 C0.68 5.33 -0.64 5.66 -2 6 C-2.14975239 13.05651252 -2.14975239 13.05651252 -1 20 C-1.66 20 -2.32 20 -3 20 C-4.59663057 15.21010828 -4.91347425 10.41731613 -3.10546875 5.6328125 C-2.14117294 3.7178505 -1.07822844 1.85320514 0 0 Z " fill="#737377" transform="translate(291,49)"/>
<path d="M0 0 C0.1953125 6.0546875 0.1953125 6.0546875 0 8 C-0.66 8.66 -1.32 9.32 -2 10 C-3.32 9.34 -4.64 8.68 -6 8 C-5.40138258 5.64828869 -4.73075648 3.3140622 -4 1 C-2 0 -2 0 0 0 Z " fill="#242D3C" transform="translate(261,243)"/>
<path d="M0 0 C1.07765625 0.10183594 2.1553125 0.20367187 3.265625 0.30859375 C4.08546875 0.39238281 4.9053125 0.47617187 5.75 0.5625 C5.75 1.2225 5.75 1.8825 5.75 2.5625 C2.12 2.5625 -1.51 2.5625 -5.25 2.5625 C-5.25 2.8925 -5.25 3.2225 -5.25 3.5625 C-7.89 3.5625 -10.53 3.5625 -13.25 3.5625 C-9.35107498 -0.92126377 -5.67485064 -0.55514843 0 0 Z " fill="#379FBA" transform="translate(349.25,53.4375)"/>
<path d="M0 0 C0.99 0.99 1.98 1.98 3 3 C2 6 2 6 0 7 C0.33 7.99 0.66 8.98 1 10 C0.01 10.33 -0.98 10.66 -2 11 C-3.52150158 7.95699684 -3.23899393 5.345915 -3 2 C-2.01 1.34 -1.02 0.68 0 0 Z " fill="#7E7E83" transform="translate(292,53)"/>
<path d="M0 0 C0.94875 0.04125 1.8975 0.0825 2.875 0.125 C2.875 1.115 2.875 2.105 2.875 3.125 C1.885 3.455 0.895 3.785 -0.125 4.125 C-0.85823796 6.14008358 -0.85823796 6.14008358 -1.125 8.125 C-2.115 8.125 -3.105 8.125 -4.125 8.125 C-4.75 5.25 -4.75 5.25 -5.125 2.125 C-3.125 0.125 -3.125 0.125 0 0 Z " fill="#0F1A30" transform="translate(258.125,206.875)"/>
<path d="M0 0 C2.5 1.375 2.5 1.375 5 3 C5 3.66 5 4.32 5 5 C3.68 5.33 2.36 5.66 1 6 C0.34 5.01 -0.32 4.02 -1 3 C-1 3.99 -1 4.98 -1 6 C-0.34 6.33 0.32 6.66 1 7 C1 7.99 1 8.98 1 10 C0.01 10 -0.98 10 -2 10 C-2.33 7.36 -2.66 4.72 -3 2 C-2.01 1.34 -1.02 0.68 0 0 Z " fill="#C97382" transform="translate(348,115)"/>
<path d="M0 0 C0.99 0 1.98 0 3 0 C3.33 2.31 3.66 4.62 4 7 C4.66 7 5.32 7 6 7 C6.33 8.65 6.66 10.3 7 12 C5.02 12.99 5.02 12.99 3 14 C2.49868109 11.85447441 1.99897884 9.70857102 1.5 7.5625 C1.2215625 6.36753906 0.943125 5.17257813 0.65625 3.94140625 C0 1 0 1 0 0 Z " fill="#9A4E90" transform="translate(261,74)"/>
<path d="M0 0 C0.86625 0.4125 1.7325 0.825 2.625 1.25 C4.62120166 1.92795528 6.62038701 2.59733531 8.625 3.25 C8.625 3.58 8.625 3.91 8.625 4.25 C-1.93308656 4.80353075 -1.93308656 4.80353075 -6.375 1.25 C-3.87265638 -0.41822908 -2.93600962 -0.92716093 0 0 Z " fill="#232F43" transform="translate(254.375,217.75)"/>
<path d="M0 0 C3.1166231 2.54996436 4.01692052 5.14330357 5 9 C5.125 12.375 5.125 12.375 5 15 C4.01 15 3.02 15 2 15 C2 14.34 2 13.68 2 13 C2.66 13 3.32 13 4 13 C3.34 11.35 2.68 9.7 2 8 C1.67 8.66 1.34 9.32 1 10 C0.01 9.67 -0.98 9.34 -2 9 C-1.67 8.443125 -1.34 7.88625 -1 7.3125 C0.1309601 4.69715478 0.15662974 2.8193354 0 0 Z " fill="#6E6F75" transform="translate(282,59)"/>
<path d="M0 0 C0.66 0.33 1.32 0.66 2 1 C1.34 4.63 0.68 8.26 0 12 C-0.33 12 -0.66 12 -1 12 C-1.33 10.35 -1.66 8.7 -2 7 C-2.99 7.33 -3.98 7.66 -5 8 C-5 6.35 -5 4.7 -5 3 C-4.34 3 -3.68 3 -3 3 C-1.37485532 1.54166642 -1.37485532 1.54166642 0 0 Z " fill="#091632" transform="translate(249,197)"/>
<path d="M0 0 C0.33 0 0.66 0 1 0 C0.86431904 7.46245278 -1.90963834 11.62749358 -7 17 C-7.66 17.33 -8.32 17.66 -9 18 C-8.41374187 14.59970284 -7.39090089 13.39090089 -5 11 C-2.73407999 7.54636727 -0.66121039 4.13256496 0 0 Z " fill="#BA6F78" transform="translate(357,135)"/>
<path d="M0 0 C3.71888239 0.50712033 6.73454239 1.11608215 10 3 C9.01 3.495 9.01 3.495 8 4 C8 4.66 8 5.32 8 6 C5.03 5.67 2.06 5.34 -1 5 C-0.01 4.34 0.98 3.68 2 3 C1.34 2.01 0.68 1.02 0 0 Z " fill="#26A1CA" transform="translate(350,49)"/>
<path d="M0 0 C0.99 0 1.98 0 3 0 C3.02698189 1.62490954 3.04638757 3.24994633 3.0625 4.875 C3.07410156 5.77992187 3.08570313 6.68484375 3.09765625 7.6171875 C3 10 3 10 2 12 C1.34 12 0.68 12 0 12 C0 8.04 0 4.08 0 0 Z " fill="#0FAEE3" transform="translate(329,30)"/>
<path d="M0 0 C0.66 0 1.32 0 2 0 C2 2.64 2 5.28 2 8 C0.02 8.33 -1.96 8.66 -4 9 C-4.66 7.68 -5.32 6.36 -6 5 C-4.35 5 -2.7 5 -1 5 C-0.67 3.35 -0.34 1.7 0 0 Z " fill="#1C2434" transform="translate(279,246)"/>
<path d="M0 0 C3.2102122 3.2102122 2.98974759 6.37460314 3.0625 10.8125 C3.041875 11.864375 3.02125 12.91625 3 14 C2.01 14 1.02 14 0 14 C0 9.38 0 4.76 0 0 Z " fill="#101E2F" transform="translate(294,240)"/>
<path d="M0 0 C4.00442495 -0.18201932 6.51777912 0.0101595 10 2 C10.66 2 11.32 2 12 2 C12 2.66 12 3.32 12 4 C6.06 4.495 6.06 4.495 0 5 C0 3.35 0 1.7 0 0 Z " fill="#14233E" transform="translate(340,216)"/>
<path d="M0 0 C0.66 0.66 1.32 1.32 2 2 C4.06874034 2.6425235 4.06874034 2.6425235 6 3 C6.33 5.64 6.66 8.28 7 11 C6.34 10.67 5.68 10.34 5 10 C5 9.34 5 8.68 5 8 C4.01 7.67 3.02 7.34 2 7 C2 6.34 2 5.68 2 5 C1.01 4.67 0.02 4.34 -1 4 C-0.67 2.68 -0.34 1.36 0 0 Z " fill="#BD5A63" transform="translate(347,117)"/>
<path d="M0 0 C1.8133922 3.20010388 2.52213974 6.13283843 3.125 9.75 C3.29257812 10.73484375 3.46015625 11.7196875 3.6328125 12.734375 C3.81457031 13.85585937 3.81457031 13.85585937 4 15 C3.01 15 2.02 15 1 15 C-0.09506492 11.71480525 -0.09960608 9.26336585 -0.0625 5.8125 C-0.05347656 4.72582031 -0.04445313 3.63914062 -0.03515625 2.51953125 C-0.02355469 1.68808594 -0.01195312 0.85664062 0 0 Z " fill="#AEC170" transform="translate(380,96)"/>
<path d="M0 0 C2.00797695 0.00356024 4.01435652 0.15236785 6.015625 0.31640625 C6.015625 0.97640625 6.015625 1.63640625 6.015625 2.31640625 C5.46132813 2.4865625 4.90703125 2.65671875 4.3359375 2.83203125 C-0.23560477 4.22466611 -0.23560477 4.22466611 -3.484375 7.50390625 C-3.731875 8.40109375 -3.731875 8.40109375 -3.984375 9.31640625 C-5.10706065 6.5607233 -5.02347204 5.4310909 -4.046875 2.56640625 C-1.984375 0.31640625 -1.984375 0.31640625 0 0 Z " fill="#B2CB51" transform="translate(357.984375,91.68359375)"/>
<path d="M0 0 C0.33 0.99 0.66 1.98 1 3 C0.34 3 -0.32 3 -1 3 C-0.67 4.32 -0.34 5.64 0 7 C-2.31 7.33 -4.62 7.66 -7 8 C-5.98823563 4.59679258 -5.35156418 3.24274669 -2.375 1.1875 C-1.59125 0.795625 -0.8075 0.40375 0 0 Z " fill="#808387" transform="translate(310,66)"/>
<path d="M0 0 C-0.43820891 4.55737263 -0.85041169 7.57653445 -4 11 C-4.12375 10.21625 -4.2475 9.4325 -4.375 8.625 C-4.79117993 5.85942178 -4.79117993 5.85942178 -7 4 C-2.25 0 -2.25 0 0 0 Z " fill="#A1AF83" transform="translate(395,59)"/>
<path d="M0 0 C0.99 0 1.98 0 3 0 C3.28875 0.78375 3.5775 1.5675 3.875 2.375 C4.84912254 5.09671632 4.84912254 5.09671632 7 7 C4.69 7.33 2.38 7.66 0 8 C0 5.36 0 2.72 0 0 Z " fill="#0B1E35" transform="translate(247,210)"/>
<path d="M0 0 C-0.969375 0.61875 -1.93875 1.2375 -2.9375 1.875 C-6.02835362 3.65678846 -6.02835362 3.65678846 -7 6 C-8.32 6 -9.64 6 -11 6 C-10.9375 4.1875 -10.9375 4.1875 -10 2 C-3.87234043 -1.29078014 -3.87234043 -1.29078014 0 0 Z " fill="#B2C771" transform="translate(372,75)"/>
<path d="M0 0 C1.98 0 3.96 0 6 0 C7.125 1.75 7.125 1.75 8 4 C7.125 6.25 7.125 6.25 6 8 C5.7525 7.360625 5.505 6.72125 5.25 6.0625 C4.18437567 3.81258459 4.18437567 3.81258459 1.875 3.25 C0.946875 3.12625 0.946875 3.12625 0 3 C0 2.01 0 1.02 0 0 Z " fill="#D7AE6E" transform="translate(313,129)"/>
<path d="M0 0 C0.99 0 1.98 0 3 0 C3.36923077 7.50769231 3.36923077 7.50769231 1.5 10 C1.005 10.33 0.51 10.66 0 11 C-1.35015859 6.94952424 -0.62084998 4.2079832 0 0 Z " fill="#B1CD3C" transform="translate(377,112)"/>
<path d="M0 0 C1.5 1.3125 1.5 1.3125 3 3 C3 3.99 3 4.98 3 6 C2.34 6 1.68 6 1 6 C1 6.66 1 7.32 1 8 C1.99 8.33 2.98 8.66 4 9 C2.35 8.67 0.7 8.34 -1 8 C-1.66 6.02 -2.32 4.04 -3 2 C-2.34 1.67 -1.68 1.34 -1 1 C-0.67 0.67 -0.34 0.34 0 0 Z " fill="#82848A" transform="translate(283,66)"/>
<path d="M0 0 C0.33 0.99 0.66 1.98 1 3 C1.99 3.33 2.98 3.66 4 4 C4.144375 4.7425 4.28875 5.485 4.4375 6.25 C4.90187492 8.52027739 5.41863569 10.75759479 6 13 C1.5991297 9.17819158 0.19194469 6.52628901 -1 1 C-0.67 0.67 -0.34 0.34 0 0 Z " fill="#14212F" transform="translate(424,241)"/>
<path d="M0 0 C1.5 1.1875 1.5 1.1875 3 3 C3.1875 5.6875 3.1875 5.6875 3 8 C1.68 8 0.36 8 -1 8 C-1.625 5.6875 -1.625 5.6875 -2 3 C-1.34 2.01 -0.68 1.02 0 0 Z " fill="#0D213C" transform="translate(412,203)"/>
<path d="M0 0 C2.75 0.25 2.75 0.25 5 1 C5.125 4.375 5.125 4.375 5 8 C4.34 8.66 3.68 9.32 3 10 C3.33 7.36 3.66 4.72 4 2 C3.236875 2.515625 2.47375 3.03125 1.6875 3.5625 C0.800625 4.036875 -0.08625 4.51125 -1 5 C-1.99 4.67 -2.98 4.34 -4 4 C-2.3125 1.9375 -2.3125 1.9375 0 0 Z " fill="#B6C780" transform="translate(386,64)"/>
<path d="M0 0 C5.88023333 6.66426444 6.30408333 12.45187983 6 21 C5.67 21 5.34 21 5 21 C4.89042969 20.20335938 4.78085937 19.40671875 4.66796875 18.5859375 C3.80562884 12.82298295 2.89507517 8.13217872 0 3 C0 2.01 0 1.02 0 0 Z " fill="#3F9EB3" transform="translate(331,24)"/>
<path d="M0 0 C0.33 0 0.66 0 1 0 C1.1953125 6.0546875 1.1953125 6.0546875 1 8 C0.34 8.66 -0.32 9.32 -1 10 C-3.125 9.625 -3.125 9.625 -5 9 C-5 8.34 -5 7.68 -5 7 C-4.34 7 -3.68 7 -3 7 C-3 5.02 -3 3.04 -3 1 C-2.67 1.99 -2.34 2.98 -2 4 C-1.34 4 -0.68 4 0 4 C0 2.68 0 1.36 0 0 Z " fill="#303B47" transform="translate(409,243)"/>
<path d="M0 0 C0 1.98 0 3.96 0 6 C-1.65 6.33 -3.3 6.66 -5 7 C-4.67 5.68 -4.34 4.36 -4 3 C-6.31 3 -8.62 3 -11 3 C-10.67 2.34 -10.34 1.68 -10 1 C-6.63471927 0.46582846 -3.40372484 0 0 0 Z " fill="#3B4C60" transform="translate(306,210)"/>
<path d="M0 0 C1.67542976 0.28604898 3.34385343 0.61781233 5 1 C5 2.65 5 4.3 5 6 C4.01 6.495 4.01 6.495 3 7 C2.67 5.35 2.34 3.7 2 2 C0.66666667 5 0.66666667 5 2 8 C1.01 8 0.02 8 -1 8 C-1.04241723 5.66705225 -1.04092937 3.33297433 -1 1 C-0.67 0.67 -0.34 0.34 0 0 Z " fill="#59667F" transform="translate(258,210)"/>
<path d="M0 0 C2.09749995 2.35968744 2.96905704 3.54616994 3.1875 6.75 C3.125625 7.4925 3.06375 8.235 3 9 C1.68 9 0.36 9 -1 9 C-1.09765625 2.84765625 -1.09765625 2.84765625 -1 1 C-0.67 0.67 -0.34 0.34 0 0 Z " fill="#222C3C" transform="translate(420,246)"/>
<path d="M0 0 C1.32 0.66 2.64 1.32 4 2 C3.67 2.99 3.34 3.98 3 5 C0 6 0 6 -2.0625 5.4375 C-2.701875 5.293125 -3.34125 5.14875 -4 5 C-4.66 5.66 -5.32 6.32 -6 7 C-6 5.68 -6 4.36 -6 3 C-4.02 2.67 -2.04 2.34 0 2 C0 1.34 0 0.68 0 0 Z " fill="#384454" transform="translate(256,239)"/>
<path d="M0 0 C0.33 0.66 0.66 1.32 1 2 C2.98 1.67 4.96 1.34 7 1 C6.67 1.99 6.34 2.98 6 4 C5.21625 4.12375 4.4325 4.2475 3.625 4.375 C0.85942178 4.79117993 0.85942178 4.79117993 -1 7 C-2 4 -2 4 -1.0625 1.8125 C-0.5365625 0.9153125 -0.5365625 0.9153125 0 0 Z " fill="#DF4D58" transform="translate(333,152)"/>
<path d="M0 0 C0.66 0 1.32 0 2 0 C2 0.66 2 1.32 2 2 C2.66 2 3.32 2 4 2 C4 2.66 4 3.32 4 4 C6.64 3.67 9.28 3.34 12 3 C12 3.99 12 4.98 12 6 C8.7 6 5.4 6 2 6 C1.34 4.02 0.68 2.04 0 0 Z " fill="#0C182F" transform="translate(400,215)"/>
<path d="M0 0 C0.99 0.33 1.98 0.66 3 1 C3.6875 3.75 3.6875 3.75 4 7 C2.5625 9.375 2.5625 9.375 1 11 C0.34 10.67 -0.32 10.34 -1 10 C-0.67 9.67 -0.34 9.34 0 9 C0.07179964 7.48071962 0.08392007 5.95832518 0.0625 4.4375 C0.05347656 3.61121094 0.04445313 2.78492188 0.03515625 1.93359375 C0.02355469 1.29550781 0.01195312 0.65742187 0 0 Z " fill="#CB585D" transform="translate(345,127)"/>
<path d="M0 0 C0.76441406 0.01675781 1.52882813 0.03351563 2.31640625 0.05078125 C3.07824219 0.05464844 3.84007812 0.05851562 4.625 0.0625 C7.07419752 0.38934265 8.74591542 1.14373524 10.87890625 2.36328125 C8.56890625 2.69328125 6.25890625 3.02328125 3.87890625 3.36328125 C3.87890625 2.70328125 3.87890625 2.04328125 3.87890625 1.36328125 C0.90890625 2.02328125 -2.06109375 2.68328125 -5.12109375 3.36328125 C-2.12109375 0.36328125 -2.12109375 0.36328125 0 0 Z " fill="#9A6194" transform="translate(268.12109375,112.63671875)"/>
<path d="M0 0 C0.99 0.495 0.99 0.495 2 1 C2 1.66 2 2.32 2 3 C2.99 3 3.98 3 5 3 C5.33 2.34 5.66 1.68 6 1 C6 1.66 6 2.32 6 3 C6.66 3.33 7.32 3.66 8 4 C8 5.32 8 6.64 8 8 C7.34 8 6.68 8 6 8 C6 7.34 6 6.68 6 6 C5.01 6.33 4.02 6.66 3 7 C0 2.25 0 2.25 0 0 Z " fill="#A25697" transform="translate(270,103)"/>
<path d="M0 0 C6.46837061 2.31884984 6.46837061 2.31884984 9 5.5625 C9.33 6.366875 9.66 7.17125 10 8 C9.67 8.66 9.34 9.32 9 10 C8.67 9.01 8.34 8.02 8 7 C7.01 7 6.02 7 5 7 C5 6.01 5 5.02 5 4 C2.525 3.01 2.525 3.01 0 2 C0 1.34 0 0.68 0 0 Z " fill="#B4C66C" transform="translate(370,86)"/>
<path d="M0 0 C0.8971875 0.5259375 0.8971875 0.5259375 1.8125 1.0625 C4.10813214 2.33304698 4.10813214 2.33304698 7 1 C6.67 2.32 6.34 3.64 6 5 C4.125 5.625 4.125 5.625 2 6 C1.34 5.34 0.68 4.68 0 4 C0 2.68 0 1.36 0 0 Z " fill="#4796B0" transform="translate(324,63)"/>
<path d="M0 0 C6.76923077 3.44615385 6.76923077 3.44615385 7.9375 6.25 C7.958125 6.8275 7.97875 7.405 8 8 C6.35 7.67 4.7 7.34 3 7 C2.87625 6.360625 2.7525 5.72125 2.625 5.0625 C2.315625 4.0415625 2.315625 4.0415625 2 3 C1.34 2.67 0.68 2.34 0 2 C0 1.34 0 0.68 0 0 Z " fill="#59A3B4" transform="translate(373,58)"/>
<path d="M0 0 C2.0625 0.4375 2.0625 0.4375 4 1 C3.01 1.66 2.02 2.32 1 3 C0.45524022 5.59270699 0.07599851 8.00451945 -0.1875 10.625 C-0.26935547 11.33140625 -0.35121094 12.0378125 -0.43554688 12.765625 C-0.63580725 14.5090683 -0.81949401 16.25440086 -1 18 C-1.33 18 -1.66 18 -2 18 C-1.85980308 15.18711295 -1.71312045 12.37483115 -1.5625 9.5625 C-1.52318359 8.76005859 -1.48386719 7.95761719 -1.44335938 7.13085938 C-1.11328125 1.11328125 -1.11328125 1.11328125 0 0 Z " fill="#289FBE" transform="translate(328,26)"/>
<path d="M0 0 C0.66 0 1.32 0 2 0 C2 1.65 2 3.3 2 5 C2.66 5.33 3.32 5.66 4 6 C3.34 8.31 2.68 10.62 2 13 C1.34 12.67 0.68 12.34 0 12 C0.33 10.02 0.66 8.04 1 6 C0.34 5.67 -0.32 5.34 -1 5 C-0.67 3.35 -0.34 1.7 0 0 Z " fill="#101931" transform="translate(229,241)"/>
<path d="M0 0 C1.70840281 1.63412443 2.93453047 2.86906094 4 5 C3.34 5 2.68 5 2 5 C1.67 5.66 1.34 6.32 1 7 C0.01 7 -0.98 7 -2 7 C-2.33 5.35 -2.66 3.7 -3 2 C-2.01 1.34 -1.02 0.68 0 0 Z " fill="#9E509A" transform="translate(268,95)"/>
<path d="M0 0 C0.66 0 1.32 0 2 0 C3.34382872 6.23047859 3.34382872 6.23047859 1.6875 9.9375 C0.8521875 10.9584375 0.8521875 10.9584375 0 12 C-0.66 12 -1.32 12 -2 12 C-2 11.01 -2 10.02 -2 9 C-1.34 9 -0.68 9 0 9 C0 6.03 0 3.06 0 0 Z " fill="#72757B" transform="translate(311,60)"/>
<path d="M0 0 C4.21878192 -0.19622241 7.17010894 0.19769832 11 2 C10.01 2.495 10.01 2.495 9 3 C8.67 3.66 8.34 4.32 8 5 C5.36 3.68 2.72 2.36 0 1 C0 0.67 0 0.34 0 0 Z " fill="#70707D" transform="translate(253,55)"/>
<path d="M0 0 C2.10633718 1.70828921 2.93801608 2.52148416 3.29296875 5.26171875 C3.25816406 6.06222656 3.22335937 6.86273438 3.1875 7.6875 C3.16042969 8.49574219 3.13335937 9.30398437 3.10546875 10.13671875 C3.07066406 10.75160156 3.03585937 11.36648437 3 12 C1.09598862 10.09598862 0.06479561 8.66574314 -0.19921875 5.953125 C-0.1886578 3.96766727 -0.09915043 1.9830086 0 0 Z " fill="#101828" transform="translate(318,240)"/>
<path d="M0 0 C0 0.66 0 1.32 0 2 C-2.65228812 3.07525194 -5.28368454 4.09456151 -8 5 C-8.33 3.68 -8.66 2.36 -9 1 C-5.8035914 -0.06546953 -3.34252724 -0.07427838 0 0 Z " fill="#132239" transform="translate(390,199)"/>
<path d="M0 0 C4.875 4.625 4.875 4.625 6 8 C5.34 8 4.68 8 4 8 C3.67 7.34 3.34 6.68 3 6 C2.01 6 1.02 6 0 6 C-1.125 2.25 -1.125 2.25 0 0 Z " fill="#905387" transform="translate(263,66)"/>
<path d="M0 0 C4 2 4 2 5.25 5.625 C5.4975 6.73875 5.745 7.8525 6 9 C5.34 9.66 4.68 10.32 4 11 C2.68 7.37 1.36 3.74 0 0 Z " fill="#313C4D" transform="translate(264,206)"/>
<path d="M0 0 C2 2 2 2 2 4 C2.66 4 3.32 4 4 4 C4 4.99 4 5.98 4 7 C1.03 6.505 1.03 6.505 -2 6 C-2.33 4.35 -2.66 2.7 -3 1 C-2.01 1.495 -2.01 1.495 -1 2 C-0.67 1.34 -0.34 0.68 0 0 Z " fill="#091931" transform="translate(397,200)"/>
<path d="M0 0 C0.99 0.33 1.98 0.66 3 1 C0.71973999 4.42039001 0.6132423 4.12406247 -3 5 C-4.73026102 6.47890069 -4.73026102 6.47890069 -6 8 C-4.75237172 4.15314615 -3.6129609 1.97070595 0 0 Z " fill="#D16A70" transform="translate(330,153)"/>
<path d="M0 0 C0.33 0.66 0.66 1.32 1 2 C-0.625 4.9375 -0.625 4.9375 -3 8 C-6.25 8.875 -6.25 8.875 -9 9 C-7.37660195 7.29115995 -5.70680947 5.62553283 -4 4 C-3.34 4 -2.68 4 -2 4 C-1.34 2.68 -0.68 1.36 0 0 Z " fill="#D57881" transform="translate(348,142)"/>
<path d="M0 0 C0.99 0.66 1.98 1.32 3 2 C2.67 3.65 2.34 5.3 2 7 C1.34 6.01 0.68 5.02 0 4 C-0.99 4.99 -1.98 5.98 -3 7 C-3.66 6.34 -4.32 5.68 -5 5 C-3.35 3.35 -1.7 1.7 0 0 Z " fill="#CB6E73" transform="translate(348,134)"/>
<path d="M0 0 C0.66 0 1.32 0 2 0 C2 2.31 2 4.62 2 7 C0.68 7.33 -0.64 7.66 -2 8 C-1.125 2.25 -1.125 2.25 0 0 Z " fill="#845C84" transform="translate(252,129)"/>
<path d="M0 0 C2.5 1.6875 2.5 1.6875 5 4 C5.3125 6.75 5.3125 6.75 5 9 C4.01 9.33 3.02 9.66 2 10 C1 8 1 8 1.5625 6.125 C2.11989698 3.41764326 1.40331898 2.31134891 0 0 Z " fill="#2AA5D1" transform="translate(346,59)"/>
<path d="M0 0 C3.63 0.33 7.26 0.66 11 1 C10.34 2.32 9.68 3.64 9 5 C8.1646875 4.566875 8.1646875 4.566875 7.3125 4.125 C4.91505355 2.9586747 2.48403061 1.9660119 0 1 C0 0.67 0 0.34 0 0 Z " fill="#7F8187" transform="translate(256,54)"/>
<path d="M0 0 C1.67542976 0.28604898 3.34385343 0.61781233 5 1 C5.33 2.65 5.66 4.3 6 6 C5.01 6.495 5.01 6.495 4 7 C4 6.34 4 5.68 4 5 C3.01 4.67 2.02 4.34 1 4 C0.34 3.01 -0.32 2.02 -1 1 C-0.67 0.67 -0.34 0.34 0 0 Z " fill="#2C3947" transform="translate(394,186)"/>
<path d="M0 0 C0.99 0 1.98 0 3 0 C3 0.66 3 1.32 3 2 C4.32 2.33 5.64 2.66 7 3 C7 4.32 7 5.64 7 7 C6.34 6.67 5.68 6.34 5 6 C5 5.34 5 4.68 5 4 C3.68 3.67 2.36 3.34 1 3 C0.67 3.66 0.34 4.32 0 5 C0 3.35 0 1.7 0 0 Z " fill="#E54B4C" transform="translate(363,131)"/>
<path d="M0 0 C3.4557601 1.15192003 4.19828537 1.91134634 6 5 C6.1875 7.75 6.1875 7.75 6 10 C5.34 8.68 4.68 7.36 4 6 C3.01 6 2.02 6 1 6 C0.67 4.02 0.34 2.04 0 0 Z " fill="#D46068" transform="translate(349,124)"/>
<path d="M0 0 C1.32 0 2.64 0 4 0 C4 1.98 4 3.96 4 6 C2.35 6 0.7 6 -1 6 C-0.649375 5.38125 -0.29875 4.7625 0.0625 4.125 C0.371875 3.42375 0.68125 2.7225 1 2 C0.67 1.34 0.34 0.68 0 0 Z " fill="#87628A" transform="translate(290,108)"/>
<path d="M0 0 C0.103125 0.598125 0.20625 1.19625 0.3125 1.8125 C0.84018987 4.08110966 0.84018987 4.08110966 2.5625 5.5625 C3.036875 6.036875 3.51125 6.51125 4 7 C4 7.99 4 8.98 4 10 C2.0625 9.4375 2.0625 9.4375 0 8 C-0.8125 4.4375 -0.8125 4.4375 -1 1 C-0.67 0.67 -0.34 0.34 0 0 Z " fill="#6C6D70" transform="translate(296,62)"/>
<path d="M0 0 C2.0625 1.75 2.0625 1.75 4 4 C3.75 6.25 3.75 6.25 3 8 C2.01 7.67 1.02 7.34 0 7 C-0.38133299 5.0085944 -0.71325582 3.00720923 -1 1 C-0.67 0.67 -0.34 0.34 0 0 Z " fill="#4F9BA9" transform="translate(325,17)"/>
<path d="M0 0 C1.98 0 3.96 0 6 0 C6.66 1.32 7.32 2.64 8 4 C6.02 4.99 6.02 4.99 4 6 C3.896875 5.38125 3.79375 4.7625 3.6875 4.125 C3.12474627 1.63473516 3.12474627 1.63473516 0 0 Z " fill="#34465A" transform="translate(381,211)"/>
<path d="M0 0 C0 1.98 0 3.96 0 6 C-0.66 5.01 -1.32 4.02 -2 3 C-3.32 3.99 -4.64 4.98 -6 6 C-6 4.35 -6 2.7 -6 1 C-3 0 -3 0 0 0 Z " fill="#0C192F" transform="translate(402,208)"/>
<path d="M0 0 C0.66 0.66 1.32 1.32 2 2 C1.67 2.99 1.34 3.98 1 5 C-1.64 5 -4.28 5 -7 5 C-6.01 4.67 -5.02 4.34 -4 4 C-4 3.34 -4 2.68 -4 2 C-2.68 2 -1.36 2 0 2 C0 1.34 0 0.68 0 0 Z " fill="#182236" transform="translate(317,197)"/>
<path d="M0 0 C0 1.98 0 3.96 0 6 C-1.65 6.33 -3.3 6.66 -5 7 C-4.39816251 4.97954558 -3.72693904 2.97888961 -3 1 C-1 0 -1 0 0 0 Z " fill="#F0AD56" transform="translate(315,141)"/>
<path d="M0 0 C2.475 0.495 2.475 0.495 5 1 C5.33 2.32 5.66 3.64 6 5 C3.03 4.505 3.03 4.505 0 4 C0 2.68 0 1.36 0 0 Z " fill="#BB586B" transform="translate(358,123)"/>
<path d="M0 0 C0 0.66 0 1.32 0 2 C-4.455 2.495 -4.455 2.495 -9 3 C-8.67 2.01 -8.34 1.02 -8 0 C-4.71023192 -1.09658936 -3.28696233 -0.79953138 0 0 Z " fill="#94558C" transform="translate(288,89)"/>
<path d="M0 0 C0.33 0 0.66 0 1 0 C1.33 2.97 1.66 5.94 2 9 C0.35 9.66 -1.3 10.32 -3 11 C-2.32829194 7.1936543 -1.27253436 3.64793184 0 0 Z " fill="#2FA7CE" transform="translate(335,37)"/>
<path d="M0 0 C1.98 0 3.96 0 6 0 C6 0.99 6 1.98 6 3 C3.69 3 1.38 3 -1 3 C-0.67 2.01 -0.34 1.02 0 0 Z " fill="#16212C" transform="translate(400,239)"/>
<path d="M0 0 C0.66 0.33 1.32 0.66 2 1 C1.01 2.485 1.01 2.485 0 4 C0.66 4.33 1.32 4.66 2 5 C1.01 5.99 0.02 6.98 -1 8 C-1.66 7.67 -2.32 7.34 -3 7 C-2.38722388 4.03824877 -1.74627478 2.61941217 0 0 Z " fill="#2A3A50" transform="translate(253,207)"/>
<path d="M0 0 C3.125 0.375 3.125 0.375 6 1 C3.50494038 3.49505962 2.32671112 3.35948376 -1.125 3.625 C-2.03507812 3.69976562 -2.94515625 3.77453125 -3.8828125 3.8515625 C-4.93082031 3.92503906 -4.93082031 3.92503906 -6 4 C-5.38125 3.71125 -4.7625 3.4225 -4.125 3.125 C-1.86674235 2.06279958 -1.86674235 2.06279958 0 0 Z " fill="#9A6D75" transform="translate(386,140)"/>
<path d="M0 0 C0.66 0 1.32 0 2 0 C2 1.98 2 3.96 2 6 C0.68 6.33 -0.64 6.66 -2 7 C-1.34 4.69 -0.68 2.38 0 0 Z " fill="#E25160" transform="translate(352,137)"/>
<path d="M0 0 C0.66 0 1.32 0 2 0 C1.67 1.98 1.34 3.96 1 6 C-0.32 6 -1.64 6 -3 6 C-2.42655063 3.13275314 -2.1385485 2.1385485 0 0 Z " fill="#E9A148" transform="translate(313,135)"/>
<path d="M0 0 C0 0.99 0 1.98 0 3 C-0.66 3.66 -1.32 4.32 -2 5 C-5.125 4.625 -5.125 4.625 -8 4 C-5.37801226 1.84622436 -3.35595828 0.59927826 0 0 Z " fill="#A7539B" transform="translate(280,114)"/>
<path d="M0 0 C0.33 0.99 0.66 1.98 1 3 C-2.05263664 3.98120464 -3.94736336 3.98120464 -7 3 C-7 2.34 -7 1.68 -7 1 C-4.53721199 -0.231394 -2.7204945 -0.07159196 0 0 Z " fill="#15ABEC" transform="translate(346,59)"/>
<path d="M0 0 C3.37462715 0.54723683 5.08235 1.0549 8 3 C6.02 3.33 4.04 3.66 2 4 C1.34 2.68 0.68 1.36 0 0 Z " fill="#27A7DE" transform="translate(346,49)"/>
<path d="M0 0 C2.7839183 1.39195915 2.97898997 3.15575779 4 6 C3.01 6 2.02 6 1 6 C1 5.34 1 4.68 1 4 C-0.32 4.33 -1.64 4.66 -3 5 C-3 4.01 -3 3.02 -3 2 C-2.01 2 -1.02 2 0 2 C0 1.34 0 0.68 0 0 Z " fill="#344651" transform="translate(249,246)"/>
<path d="M0 0 C1.32 0.33 2.64 0.66 4 1 C3.67 3.31 3.34 5.62 3 8 C2.67 7.34 2.34 6.68 2 6 C1.34 5.67 0.68 5.34 0 5 C0 3.35 0 1.7 0 0 Z " fill="#121D30" transform="translate(346,240)"/>
<path d="M0 0 C1.32 0 2.64 0 4 0 C4 2.64 4 5.28 4 8 C3.34 8 2.68 8 2 8 C1.34 5.36 0.68 2.72 0 0 Z " fill="#DEA343" transform="translate(315,144)"/>
<path d="M0 0 C1.26026798 2.52053595 0.91874445 3.8542098 0.5625 6.625 C0.46066406 7.44226563 0.35882813 8.25953125 0.25390625 9.1015625 C0.17011719 9.72804688 0.08632813 10.35453125 0 11 C-0.66 9.68 -1.32 8.36 -2 7 C-2.99 7.495 -2.99 7.495 -4 8 C-4 7.01 -4 6.02 -4 5 C-3.34 4.67 -2.68 4.34 -2 4 C-0.86649466 1.98330173 -0.86649466 1.98330173 0 0 Z " fill="#A06C9E" transform="translate(269,82)"/>
<path d="M0 0 C2.76276177 0.52268466 5.3260876 1.10869587 8 2 C8 2.66 8 3.32 8 4 C5.36 3.67 2.72 3.34 0 3 C0 2.01 0 1.02 0 0 Z " fill="#CDE26F" transform="translate(359,89)"/>
<path d="M0 0 C0.86625 0.37125 0.86625 0.37125 1.75 0.75 C0.76 1.08 -0.23 1.41 -1.25 1.75 C-2.24 3.235 -2.24 3.235 -3.25 4.75 C-3.91 4.75 -4.57 4.75 -5.25 4.75 C-5.91 6.07 -6.57 7.39 -7.25 8.75 C-6.89947365 5.59526281 -6.38480924 3.9266466 -4.4375 1.375 C-2.25 -0.25 -2.25 -0.25 0 0 Z " fill="#A865A2" transform="translate(281.25,88.25)"/>
<path d="M0 0 C0.33 0 0.66 0 1 0 C1 1.65 1 3.3 1 5 C-0.65 5.33 -2.3 5.66 -4 6 C-4 4.35 -4 2.7 -4 1 C-3.34 1.66 -2.68 2.32 -2 3 C-1.34 2.01 -0.68 1.02 0 0 Z " fill="#717678" transform="translate(298,75)"/>
<path d="M0 0 C-0.33 0.66 -0.66 1.32 -1 2 C-3.64 1.67 -6.28 1.34 -9 1 C-8 -1 -8 -1 -6.1875 -1.75 C-3.50171361 -2.05694702 -2.2747813 -1.38111722 0 0 Z " fill="#28313B" transform="translate(257,240)"/>
<path d="M0 0 C2.64 1.98 5.28 3.96 8 6 C6.68 6.33 5.36 6.66 4 7 C3.67 6.01 3.34 5.02 3 4 C2.34 4 1.68 4 1 4 C0.67 2.68 0.34 1.36 0 0 Z " fill="#DAAA5E" transform="translate(280,134)"/>
<path d="M0 0 C2.31 0.66 4.62 1.32 7 2 C7 2.66 7 3.32 7 4 C5.02 4 3.04 4 1 4 C0.67 2.68 0.34 1.36 0 0 Z " fill="#F1A024" transform="translate(272,134)"/>
<path d="M0 0 C0.99 0.33 1.98 0.66 3 1 C3 2.32 3 3.64 3 5 C1.68 5.33 0.36 5.66 -1 6 C-1.042721 4.33388095 -1.04063832 2.66617115 -1 1 C-0.67 0.67 -0.34 0.34 0 0 Z " fill="#E0515F" transform="translate(360,126)"/>
<path d="M0 0 C1.875 0.625 1.875 0.625 4 2 C5.25 5.125 5.25 5.125 6 8 C1.3125 4.38671875 1.3125 4.38671875 0 3 C0 2.01 0 1.02 0 0 Z " fill="#9A6595" transform="translate(265,102)"/>
<path d="M0 0 C0.33 0.66 0.66 1.32 1 2 C0.01 3.485 0.01 3.485 -1 5 C-1 5.99 -1 6.98 -1 8 C-1.99 8 -2.98 8 -4 8 C-3.40138258 5.64828869 -2.73075648 3.3140622 -2 1 C-1.34 0.67 -0.68 0.34 0 0 Z " fill="#94528A" transform="translate(278,92)"/>
<path d="M0 0 C3.96 0 7.92 0 12 0 C11.67 0.66 11.34 1.32 11 2 C10.07767578 1.98259766 10.07767578 1.98259766 9.13671875 1.96484375 C7.92435547 1.95130859 7.92435547 1.95130859 6.6875 1.9375 C5.88699219 1.92589844 5.08648437 1.91429687 4.26171875 1.90234375 C1.83138666 1.90342145 1.83138666 1.90342145 -1 3 C-0.67 2.01 -0.34 1.02 0 0 Z " fill="#2BA7CA" transform="translate(334,57)"/>
<path d="M0 0 C0.33 0.99 0.66 1.98 1 3 C-1.64 3 -4.28 3 -7 3 C-4.49955934 -0.00052879 -4.2621484 0 0 0 Z " fill="#1DA1B9" transform="translate(343,54)"/>
<path d="M0 0 C0.99 0.33 1.98 0.66 3 1 C2.67 1.99 2.34 2.98 2 4 C0.02 4 -1.96 4 -4 4 C-2.68 2.68 -1.36 1.36 0 0 Z " fill="#1C2330" transform="translate(405,251)"/>
<path d="M0 0 C0.99 0 1.98 0 3 0 C3 1.98 3 3.96 3 6 C2.01 6 1.02 6 0 6 C0 4.02 0 2.04 0 0 Z " fill="#162231" transform="translate(328,243)"/>
<path d="M0 0 C0.66 0 1.32 0 2 0 C2 0.66 2 1.32 2 2 C3.65 2 5.3 2 7 2 C6.360625 2.12375 5.72125 2.2475 5.0625 2.375 C4.381875 2.58125 3.70125 2.7875 3 3 C2.67 3.66 2.34 4.32 2 5 C1.01 4.34 0.02 3.68 -1 3 C-0.67 2.01 -0.34 1.02 0 0 Z " fill="#38414F" transform="translate(397,240)"/>
<path d="M0 0 C1.32 0 2.64 0 4 0 C4 1.32 4 2.64 4 4 C2.02 3.34 0.04 2.68 -2 2 C-1.34 1.34 -0.68 0.68 0 0 Z " fill="#101F36" transform="translate(335,217)"/>
<path d="M0 0 C2 2 2 2 2 5 C0.35 5 -1.3 5 -3 5 C-2.625 3.0625 -2.625 3.0625 -2 1 C-1.34 0.67 -0.68 0.34 0 0 Z " fill="#061D32" transform="translate(378,209)"/>
<path d="M0 0 C2.97 0 5.94 0 9 0 C9 0.99 9 1.98 9 3 C2.84765625 2.4140625 2.84765625 2.4140625 1 2 C0.67 1.34 0.34 0.68 0 0 Z " fill="#C15867" transform="translate(335,138)"/>
<path d="M0 0 C0.66 0.33 1.32 0.66 2 1 C1.34 3.31 0.68 5.62 0 8 C-0.99 8 -1.98 8 -3 8 C-2.34 7.67 -1.68 7.34 -1 7 C-0.59270772 4.67843403 -0.25561323 2.3431213 0 0 Z " fill="#A7BF75" transform="translate(368,99)"/>
<path d="M0 0 C1.65 0 3.3 0 5 0 C5.33 0.99 5.66 1.98 6 3 C2.71023192 4.09658936 1.28696233 3.79953138 -2 3 C-1.34 2.67 -0.68 2.34 0 2 C0 1.34 0 0.68 0 0 Z " fill="#BDD462" transform="translate(364,92)"/>
<path d="M0 0 C0.33 0.99 0.66 1.98 1 3 C0.01 4.485 0.01 4.485 -1 6 C-0.34 6.33 0.32 6.66 1 7 C-0.32 7 -1.64 7 -3 7 C-2.25 2.25 -2.25 2.25 0 0 Z " fill="#23A5C7" transform="translate(331,56)"/>
<path d="M0 0 C1.33333333 2.66666667 2.66666667 5.33333333 4 8 C3.01 8.33 2.02 8.66 1 9 C-0.4783226 6.04335481 -0.06032783 3.25770263 0 0 Z " fill="#85848A" transform="translate(289,55)"/>
</svg>
